<?xml version="1.0" encoding="UTF-8" standalone="no"?>
<!DOCTYPE svg PUBLIC "-//W3C//DTD SVG 1.1//EN"
 "http://www.w3.org/Graphics/SVG/1.1/DTD/svg11.dtd">
<!-- Generated by graphviz version 12.2.1 (20241206.2353)
 -->
<!-- Title: ProviderStrategyPattern Pages: 1 -->
<svg width="5885pt" height="4802pt"
 viewBox="0.00 0.00 5885.00 4801.65" xmlns="http://www.w3.org/2000/svg" xmlns:xlink="http://www.w3.org/1999/xlink">
<g id="graph0" class="graph" transform="scale(1 1) rotate(0) translate(4 4797.65)">
<title>ProviderStrategyPattern</title>
<g id="clust1" class="cluster">
<title>cluster_strategy</title>
<polygon fill="none" stroke="#2196f3" stroke-dasharray="5,2" points="1769,-2771.78 1769,-3986.15 3937,-3986.15 3937,-2771.78 1769,-2771.78"/>
<text text-anchor="middle" x="2853" y="-3947.95" font-family="Helvetica,sans-Serif" font-size="36.00" fill="#2196f3">Patron Stratégie &#45; Abstraction des Fournisseurs Cloud</text>
</g>
<g id="clust2" class="cluster">
<title>cluster_context</title>
<polygon fill="none" stroke="#ff9800" stroke-dasharray="5,2" points="3176,-4123.4 3176,-4785.65 4060,-4785.65 4060,-4123.4 3176,-4123.4"/>
<text text-anchor="middle" x="3618" y="-4747.45" font-family="Helvetica,sans-Serif" font-size="36.00" fill="#ff9800">Contexte &#45; Registre des Fournisseurs</text>
</g>
<g id="clust3" class="cluster">
<title>cluster_provisioning</title>
<polygon fill="none" stroke="#9c27b0" stroke-dasharray="5,2" points="8,-3514.9 8,-4785.65 888,-4785.65 888,-3514.9 8,-3514.9"/>
<text text-anchor="middle" x="448" y="-4747.45" font-family="Helvetica,sans-Serif" font-size="36.00" fill="#9c27b0">Flux d&#39;Approvisionnement</text>
</g>
<g id="clust4" class="cluster">
<title>cluster_terraform</title>
<polygon fill="none" stroke="#4caf50" stroke-dasharray="5,2" points="284,-2071.4 284,-3259.4 1650,-3259.4 1650,-2071.4 284,-2071.4"/>
<text text-anchor="middle" x="967" y="-3221.2" font-family="Helvetica,sans-Serif" font-size="36.00" fill="#4caf50">Couche d&#39;Orchestration Terraform</text>
</g>
<g id="clust5" class="cluster">
<title>cluster_workflow</title>
<polygon fill="#fafafa" stroke="#fafafa" points="4407,-8 4407,-4558.1 4989,-4558.1 4989,-8 4407,-8"/>
<text text-anchor="middle" x="4698" y="-4529.4" font-family="Helvetica,sans-Serif" font-size="26.00" fill="#616161">Étapes du Flux d&#39;Approvisionnement</text>
</g>
<g id="clust6" class="cluster">
<title>cluster_legend</title>
<polygon fill="#fafafa" stroke="#fafafa" points="5117,-4203.28 5117,-4691.53 5869,-4691.53 5869,-4203.28 5117,-4203.28"/>
<text text-anchor="middle" x="5493" y="-4664.73" font-family="Helvetica,sans-Serif" font-size="24.00">Légende</text>
</g>
<!-- Provider -->
<g id="node1" class="node">
<title>Provider</title>
<polygon fill="#e3f2fd" stroke="none" points="2388,-2984.78 2388,-3094.78 3318,-3094.78 3318,-2984.78 2388,-2984.78"/>
<polygon fill="none" stroke="black" points="2388,-2984.78 2388,-3094.78 3318,-3094.78 3318,-2984.78 2388,-2984.78"/>
<text text-anchor="start" x="2684.25" y="-3042.78" font-family="Helvetica,sans-Serif" font-weight="bold" font-size="40.00">&lt;&lt;interface&gt;&gt;</text>
<text text-anchor="start" x="2757.38" y="-3002.78" font-family="Helvetica,sans-Serif" font-weight="bold" font-size="40.00">Provider</text>
<polygon fill="none" stroke="black" points="2388,-2783.78 2388,-2984.78 3318,-2984.78 3318,-2783.78 2388,-2783.78"/>
<text text-anchor="start" x="2403" y="-2935.58" font-family="Helvetica,sans-Serif" font-size="36.00">+ GetTerraformBackendConfig() map[string]string</text>
<text text-anchor="start" x="2403" y="-2892.83" font-family="Helvetica,sans-Serif" font-size="36.00">+ GetProviderName() string</text>
<text text-anchor="start" x="2403" y="-2850.08" font-family="Helvetica,sans-Serif" font-size="36.00">+ GetRegion() string</text>
<text text-anchor="start" x="2403" y="-2807.33" font-family="Helvetica,sans-Serif" font-size="36.00">+ IsConfigured() bool</text>
</g>
<!-- GCPService -->
<g id="node2" class="node">
<title>GCPService</title>
<polygon fill="#c8e6c9" stroke="none" points="3315.38,-3823.4 3315.38,-3923.4 3920.62,-3923.4 3920.62,-3823.4 3315.38,-3823.4"/>
<polygon fill="none" stroke="black" points="3315.38,-3823.4 3315.38,-3923.4 3920.62,-3923.4 3920.62,-3823.4 3315.38,-3823.4"/>
<text text-anchor="start" x="3489.38" y="-3871.4" font-family="Helvetica,sans-Serif" font-weight="bold" font-size="40.00">GCPService</text>
<text text-anchor="start" x="3450.75" y="-3840.9" font-family="Helvetica,sans-Serif" font-size="30.00">services/gcp/config.go</text>
<polygon fill="none" stroke="black" points="3315.38,-3408.65 3315.38,-3823.4 3920.62,-3823.4 3920.62,-3408.65 3315.38,-3408.65"/>
<text text-anchor="start" x="3330.38" y="-3774.2" font-family="Helvetica,sans-Serif" font-size="36.00">+ GetTerraformBackendConfig()</text>
<text text-anchor="start" x="3330.38" y="-3731.45" font-family="Helvetica,sans-Serif" font-size="36.00">+ GetProviderName() → &quot;gcp&quot;</text>
<text text-anchor="start" x="3330.38" y="-3688.7" font-family="Helvetica,sans-Serif" font-size="36.00">+ GetRegion()</text>
<text text-anchor="start" x="3330.38" y="-3645.95" font-family="Helvetica,sans-Serif" font-size="36.00">+ IsConfigured()</text>
<text text-anchor="start" x="3330.38" y="-3603.2" font-family="Helvetica,sans-Serif" font-size="36.00">──────────────────</text>
<text text-anchor="start" x="3330.38" y="-3560.45" font-family="Helvetica,sans-Serif" font-size="36.00">+ InitializeGCP()</text>
<text text-anchor="start" x="3330.38" y="-3517.7" font-family="Helvetica,sans-Serif" font-size="36.00">+ ConfigureGCP()</text>
<text text-anchor="start" x="3330.38" y="-3474.95" font-family="Helvetica,sans-Serif" font-size="36.00">+ GetClient() *gcp.Client</text>
<text text-anchor="start" x="3330.38" y="-3432.2" font-family="Helvetica,sans-Serif" font-size="36.00">+ GetCurrentConfig()</text>
</g>
<!-- GCPService&#45;&gt;Provider -->
<g id="edge1" class="edge">
<title>GCPService&#45;&gt;Provider</title>
<path fill="none" stroke="black" stroke-width="2.5" stroke-dasharray="5,2" d="M3316.69,-3404.68C3316.69,-3404.68 3316.69,-3112.41 3316.69,-3112.41"/>
<polygon fill="none" stroke="black" stroke-width="2.5" points="3320.19,-3112.41 3316.69,-3102.41 3313.19,-3112.41 3320.19,-3112.41"/>
<text text-anchor="middle" x="3429.25" y="-3295.65" font-family="Helvetica,sans-Serif" font-size="20.00">implémente</text>
</g>
<!-- AWSService -->
<g id="node3" class="node">
<title>AWSService</title>
<polygon fill="#eeeeee" stroke="none" points="1785.38,-3716.53 1785.38,-3816.53 2390.62,-3816.53 2390.62,-3716.53 1785.38,-3716.53"/>
<polygon fill="none" stroke="black" points="1785.38,-3716.53 1785.38,-3816.53 2390.62,-3816.53 2390.62,-3716.53 1785.38,-3716.53"/>
<text text-anchor="start" x="1954.88" y="-3764.53" font-family="Helvetica,sans-Serif" font-weight="bold" font-size="40.00">AWSService</text>
<text text-anchor="start" x="1906.88" y="-3734.03" font-family="Helvetica,sans-Serif" font-size="30.00">(implémentation future)</text>
<polygon fill="none" stroke="black" points="1785.38,-3515.53 1785.38,-3716.53 2390.62,-3716.53 2390.62,-3515.53 1785.38,-3515.53"/>
<text text-anchor="start" x="1800.38" y="-3667.33" font-family="Helvetica,sans-Serif" font-size="36.00">+ GetTerraformBackendConfig()</text>
<text text-anchor="start" x="1800.38" y="-3624.58" font-family="Helvetica,sans-Serif" font-size="36.00">+ GetProviderName() → &quot;aws&quot;</text>
<text text-anchor="start" x="1800.38" y="-3581.83" font-family="Helvetica,sans-Serif" font-size="36.00">+ GetRegion()</text>
<text text-anchor="start" x="1800.38" y="-3539.08" font-family="Helvetica,sans-Serif" font-size="36.00">+ IsConfigured()</text>
</g>
<!-- AWSService&#45;&gt;Provider -->
<g id="edge2" class="edge">
<title>AWSService&#45;&gt;Provider</title>
<path fill="none" stroke="black" stroke-width="2.5" stroke-dasharray="5,2" d="M2389.31,-3511.9C2389.31,-3511.9 2389.31,-3112.3 2389.31,-3112.3"/>
<polygon fill="none" stroke="black" stroke-width="2.5" points="2392.81,-3112.3 2389.31,-3102.3 2385.81,-3112.3 2392.81,-3112.3"/>
<text text-anchor="middle" x="2395.25" y="-3295.65" font-family="Helvetica,sans-Serif" font-size="20.00">implémente</text>
</g>
<!-- AzureService -->
<g id="node4" class="node">
<title>AzureService</title>
<polygon fill="#eeeeee" stroke="none" points="2550.38,-3695.15 2550.38,-3795.15 3155.62,-3795.15 3155.62,-3695.15 2550.38,-3695.15"/>
<polygon fill="none" stroke="black" points="2550.38,-3695.15 2550.38,-3795.15 3155.62,-3795.15 3155.62,-3695.15 2550.38,-3695.15"/>
<text text-anchor="start" x="2705.62" y="-3743.15" font-family="Helvetica,sans-Serif" font-weight="bold" font-size="40.00">AzureService</text>
<text text-anchor="start" x="2671.88" y="-3712.65" font-family="Helvetica,sans-Serif" font-size="30.00">(implémentation future)</text>
<polygon fill="none" stroke="black" points="2550.38,-3536.9 2550.38,-3695.15 3155.62,-3695.15 3155.62,-3536.9 2550.38,-3536.9"/>
<text text-anchor="start" x="2565.38" y="-3645.95" font-family="Helvetica,sans-Serif" font-size="36.00">+ GetTerraformBackendConfig()</text>
<text text-anchor="start" x="2565.38" y="-3603.2" font-family="Helvetica,sans-Serif" font-size="36.00">+ GetProviderName() → &quot;azure&quot;</text>
<text text-anchor="start" x="2565.38" y="-3560.45" font-family="Helvetica,sans-Serif" font-size="36.00">+ IsConfigured()</text>
</g>
<!-- AzureService&#45;&gt;Provider -->
<g id="edge3" class="edge">
<title>AzureService&#45;&gt;Provider</title>
<path fill="none" stroke="black" stroke-width="2.5" stroke-dasharray="5,2" d="M2853,-3533.15C2853,-3533.15 2853,-3112.3 2853,-3112.3"/>
<polygon fill="none" stroke="black" stroke-width="2.5" points="2856.5,-3112.3 2853,-3102.3 2849.5,-3112.3 2856.5,-3112.3"/>
<text text-anchor="middle" x="2912.25" y="-3295.65" font-family="Helvetica,sans-Serif" font-size="20.00">implémente</text>
</g>
<!-- ProviderManager -->
<g id="node5" class="node">
<title>ProviderManager</title>
<polygon fill="#ffe0b2" stroke="none" points="3192,-4622.9 3192,-4722.9 4044,-4722.9 4044,-4622.9 3192,-4622.9"/>
<polygon fill="none" stroke="black" points="3192,-4622.9 3192,-4722.9 4044,-4722.9 4044,-4622.9 3192,-4622.9"/>
<text text-anchor="start" x="3423.75" y="-4670.9" font-family="Helvetica,sans-Serif" font-weight="bold" font-size="40.00">ProviderManager</text>
<text text-anchor="start" x="3391.88" y="-4640.4" font-family="Helvetica,sans-Serif" font-size="30.00">services/provider_manager.go</text>
<polygon fill="none" stroke="black" points="3192,-4464.65 3192,-4622.9 4044,-4622.9 4044,-4464.65 3192,-4464.65"/>
<text text-anchor="start" x="3207" y="-4573.7" font-family="Helvetica,sans-Serif" font-size="36.00">&#45; providers: map[string]Provider</text>
<text text-anchor="start" x="3207" y="-4530.95" font-family="Helvetica,sans-Serif" font-size="36.00">&#45; gcpService: *GCPService</text>
<text text-anchor="start" x="3207" y="-4488.2" font-family="Helvetica,sans-Serif" font-size="36.00">&#45; infrastructureService: *InfrastructureService</text>
<polygon fill="none" stroke="black" points="3192,-4135.4 3192,-4464.65 4044,-4464.65 4044,-4135.4 3192,-4135.4"/>
<text text-anchor="start" x="3207" y="-4415.45" font-family="Helvetica,sans-Serif" font-size="36.00">+ InitializeProviders(ctx)</text>
<text text-anchor="start" x="3207" y="-4372.7" font-family="Helvetica,sans-Serif" font-size="36.00">+ GetProvider(name) Provider</text>
<text text-anchor="start" x="3207" y="-4329.95" font-family="Helvetica,sans-Serif" font-size="36.00">+ GetConfiguredProviders()</text>
<text text-anchor="start" x="3207" y="-4287.2" font-family="Helvetica,sans-Serif" font-size="36.00">+ HasConfiguredProviders()</text>
<text text-anchor="start" x="3207" y="-4244.45" font-family="Helvetica,sans-Serif" font-size="36.00">──────────────────</text>
<text text-anchor="start" x="3207" y="-4201.7" font-family="Helvetica,sans-Serif" font-size="36.00">&#45; initializeGCP(ctx)</text>
<text text-anchor="start" x="3207" y="-4158.95" font-family="Helvetica,sans-Serif" font-size="36.00">&#45; initializeGCPInfrastructure(ctx)</text>
</g>
<!-- ProviderManager&#45;&gt;Provider -->
<g id="edge6" class="edge">
<title>ProviderManager&#45;&gt;Provider</title>
<path fill="none" stroke="#ff9800" stroke-width="2.5" d="M3245.69,-4131.68C3245.69,-4131.68 3245.69,-3112.33 3245.69,-3112.33"/>
<polygon fill="#ff9800" stroke="#ff9800" stroke-width="2.5" points="3249.19,-3112.33 3245.69,-3102.33 3242.19,-3112.33 3249.19,-3112.33"/>
<text text-anchor="middle" x="4268.38" y="-3671.03" font-family="Helvetica,sans-Serif" font-size="20.00">utilise</text>
<text text-anchor="middle" x="4268.38" y="-3647.03" font-family="Helvetica,sans-Serif" font-size="20.00">(stratégie)</text>
</g>
<!-- ProviderManager&#45;&gt;GCPService -->
<g id="edge7" class="edge">
<title>ProviderManager&#45;&gt;GCPService</title>
<path fill="none" stroke="black" stroke-width="2.5" stroke-dasharray="5,2" d="M3618,-4131.65C3618,-4131.65 3618,-3940.98 3618,-3940.98"/>
<polygon fill="black" stroke="black" stroke-width="2.5" points="3621.5,-3940.98 3618,-3930.98 3614.5,-3940.98 3621.5,-3940.98"/>
<text text-anchor="middle" x="3667.88" y="-4022.4" font-family="Helvetica,sans-Serif" font-size="20.00">enregistre</text>
</g>
<!-- InfrastructureService -->
<g id="node11" class="node">
<title>InfrastructureService</title>
<polygon fill="#ffe0b2" stroke="none" points="904.25,-3716.53 904.25,-3816.53 1625.75,-3816.53 1625.75,-3716.53 904.25,-3716.53"/>
<polygon fill="none" stroke="black" points="904.25,-3716.53 904.25,-3816.53 1625.75,-3816.53 1625.75,-3716.53 904.25,-3716.53"/>
<text text-anchor="start" x="1024.25" y="-3764.53" font-family="Helvetica,sans-Serif" font-weight="bold" font-size="40.00">InfrastructureService</text>
<text text-anchor="start" x="1072.62" y="-3734.03" font-family="Helvetica,sans-Serif" font-size="30.00">services/infrastructure.go</text>
<polygon fill="none" stroke="black" points="904.25,-3515.53 904.25,-3716.53 1625.75,-3716.53 1625.75,-3515.53 904.25,-3515.53"/>
<text text-anchor="start" x="919.25" y="-3667.33" font-family="Helvetica,sans-Serif" font-size="36.00">+ InitializeInfrastructure(ctx, provider)</text>
<text text-anchor="start" x="919.25" y="-3624.58" font-family="Helvetica,sans-Serif" font-size="36.00">+ DestroyInfrastructure(ctx, provider)</text>
<text text-anchor="start" x="919.25" y="-3581.83" font-family="Helvetica,sans-Serif" font-size="36.00">+ GetInfrastructureStatus(provider)</text>
<text text-anchor="start" x="919.25" y="-3539.08" font-family="Helvetica,sans-Serif" font-size="36.00">+ PublishNodeModule(ctx, provider)</text>
</g>
<!-- ProviderManager&#45;&gt;InfrastructureService -->
<g id="edge8" class="edge">
<title>ProviderManager&#45;&gt;InfrastructureService</title>
<path fill="none" stroke="black" stroke-width="2.5" d="M3184.02,-4429C2504.21,-4429 1265,-4429 1265,-4429 1265,-4429 1265,-3834.21 1265,-3834.21"/>
<polygon fill="black" stroke="black" stroke-width="2.5" points="1268.5,-3834.21 1265,-3824.21 1261.5,-3834.21 1268.5,-3834.21"/>
<text text-anchor="middle" x="1855.87" y="-4434" font-family="Helvetica,sans-Serif" font-size="20.00">initialise l&#39;infra</text>
</g>
<!-- ProvisioningService -->
<g id="node6" class="node">
<title>ProvisioningService</title>
<polygon fill="#e1bee7" stroke="none" points="24.25,-4622.9 24.25,-4722.9 871.75,-4722.9 871.75,-4622.9 24.25,-4622.9"/>
<polygon fill="none" stroke="black" points="24.25,-4622.9 24.25,-4722.9 871.75,-4722.9 871.75,-4622.9 24.25,-4622.9"/>
<text text-anchor="start" x="224.88" y="-4670.9" font-family="Helvetica,sans-Serif" font-weight="bold" font-size="40.00">ProvisioningService</text>
<text text-anchor="start" x="235.38" y="-4640.4" font-family="Helvetica,sans-Serif" font-size="30.00">services/gcp/provisioning.go</text>
<polygon fill="none" stroke="black" points="24.25,-4421.9 24.25,-4622.9 871.75,-4622.9 871.75,-4421.9 24.25,-4421.9"/>
<text text-anchor="start" x="39.25" y="-4573.7" font-family="Helvetica,sans-Serif" font-size="36.00">&#45; gcpService: *GCPService</text>
<text text-anchor="start" x="39.25" y="-4530.95" font-family="Helvetica,sans-Serif" font-size="36.00">&#45; talosService: *TalosService</text>
<text text-anchor="start" x="39.25" y="-4488.2" font-family="Helvetica,sans-Serif" font-size="36.00">&#45; gitopsService: *GitOpsService</text>
<text text-anchor="start" x="39.25" y="-4445.45" font-family="Helvetica,sans-Serif" font-size="36.00">&#45; activeProvisions: map[uuid]ProvisionSession</text>
<polygon fill="none" stroke="black" points="24.25,-4135.4 24.25,-4421.9 871.75,-4421.9 871.75,-4135.4 24.25,-4135.4"/>
<text text-anchor="start" x="39.25" y="-4372.7" font-family="Helvetica,sans-Serif" font-size="36.00">+ ProvisionNodes(ctx, req, session)</text>
<text text-anchor="start" x="39.25" y="-4329.95" font-family="Helvetica,sans-Serif" font-size="36.00">──────────────────</text>
<text text-anchor="start" x="39.25" y="-4287.2" font-family="Helvetica,sans-Serif" font-size="36.00">&#45; createTerraformFiles()</text>
<text text-anchor="start" x="39.25" y="-4244.45" font-family="Helvetica,sans-Serif" font-size="36.00">&#45; commitTerraformFiles()</text>
<text text-anchor="start" x="39.25" y="-4201.7" font-family="Helvetica,sans-Serif" font-size="36.00">&#45; uploadTalosConfigsToGCS()</text>
<text text-anchor="start" x="39.25" y="-4158.95" font-family="Helvetica,sans-Serif" font-size="36.00">&#45; getTerraformOutputs()</text>
</g>
<!-- ProvisioningService&#45;&gt;GCPService -->
<g id="edge9" class="edge">
<title>ProvisioningService&#45;&gt;GCPService</title>
<path fill="none" stroke="black" stroke-width="2.5" d="M812.81,-4131.67C812.81,-3999.82 812.81,-3874 812.81,-3874 812.81,-3874 3293.63,-3874 3293.63,-3874"/>
<polygon fill="black" stroke="black" stroke-width="2.5" points="3293.63,-3877.5 3303.63,-3874 3293.63,-3870.5 3293.63,-3877.5"/>
<text text-anchor="middle" x="917" y="-4022.4" font-family="Helvetica,sans-Serif" font-size="20.00">utilise config</text>
</g>
<!-- ProvisionSession -->
<g id="node7" class="node">
<title>ProvisionSession</title>
<polygon fill="#f3e5f5" stroke="none" points="170.12,-3727.9 170.12,-3805.15 737.88,-3805.15 737.88,-3727.9 170.12,-3727.9"/>
<polygon fill="none" stroke="black" points="170.12,-3727.9 170.12,-3805.15 737.88,-3805.15 737.88,-3727.9 170.12,-3727.9"/>
<text text-anchor="start" x="262.38" y="-3753.15" font-family="Helvetica,sans-Serif" font-weight="bold" font-size="40.00">ProvisionSession</text>
<polygon fill="none" stroke="black" points="170.12,-3526.9 170.12,-3727.9 737.88,-3727.9 737.88,-3526.9 170.12,-3526.9"/>
<text text-anchor="start" x="185.12" y="-3678.7" font-family="Helvetica,sans-Serif" font-size="36.00">+ WorkDir: string</text>
<text text-anchor="start" x="185.12" y="-3635.95" font-family="Helvetica,sans-Serif" font-size="36.00">+ Orchestrator: *Orchestrator</text>
<text text-anchor="start" x="185.12" y="-3593.2" font-family="Helvetica,sans-Serif" font-size="36.00">+ Nodes: []NodeConfig</text>
<text text-anchor="start" x="185.12" y="-3550.45" font-family="Helvetica,sans-Serif" font-size="36.00">+ GCPConfig: *GCPConfig</text>
</g>
<!-- ProvisioningService&#45;&gt;ProvisionSession -->
<g id="edge10" class="edge">
<title>ProvisioningService&#45;&gt;ProvisionSession</title>
<path fill="none" stroke="black" stroke-width="2.5" d="M454,-4131.65C454,-4131.65 454,-3822.68 454,-3822.68"/>
<polygon fill="black" stroke="black" stroke-width="2.5" points="457.5,-3822.68 454,-3812.68 450.5,-3822.68 457.5,-3822.68"/>
<text text-anchor="middle" x="473.12" y="-4022.4" font-family="Helvetica,sans-Serif" font-size="20.00">gère</text>
</g>
<!-- Orchestrator -->
<g id="node8" class="node">
<title>Orchestrator</title>
<polygon fill="#c8e6c9" stroke="none" points="583.38,-3096.65 583.38,-3196.65 1290.62,-3196.65 1290.62,-3096.65 583.38,-3096.65"/>
<polygon fill="none" stroke="black" points="583.38,-3096.65 583.38,-3196.65 1290.62,-3196.65 1290.62,-3096.65 583.38,-3096.65"/>
<text text-anchor="start" x="793" y="-3144.65" font-family="Helvetica,sans-Serif" font-weight="bold" font-size="40.00">Orchestrator</text>
<text text-anchor="start" x="713.88" y="-3114.15" font-family="Helvetica,sans-Serif" font-size="30.00">pkg/terraform/orchestrator.go</text>
<polygon fill="none" stroke="black" points="583.38,-2681.9 583.38,-3096.65 1290.62,-3096.65 1290.62,-2681.9 583.38,-2681.9"/>
<text text-anchor="start" x="598.38" y="-3047.45" font-family="Helvetica,sans-Serif" font-size="36.00">+ Init(ctx)</text>
<text text-anchor="start" x="598.38" y="-3004.7" font-family="Helvetica,sans-Serif" font-size="36.00">+ Plan(ctx) (bool, error)</text>
<text text-anchor="start" x="598.38" y="-2961.95" font-family="Helvetica,sans-Serif" font-size="36.00">+ PlanWithOutput(ctx)</text>
<text text-anchor="start" x="598.38" y="-2919.2" font-family="Helvetica,sans-Serif" font-size="36.00">+ Apply(ctx)</text>
<text text-anchor="start" x="598.38" y="-2876.45" font-family="Helvetica,sans-Serif" font-size="36.00">+ ApplyJSON(ctx, writer)</text>
<text text-anchor="start" x="598.38" y="-2833.7" font-family="Helvetica,sans-Serif" font-size="36.00">+ Destroy(ctx)</text>
<text text-anchor="start" x="598.38" y="-2790.95" font-family="Helvetica,sans-Serif" font-size="36.00">+ Output(ctx)</text>
<text text-anchor="start" x="598.38" y="-2748.2" font-family="Helvetica,sans-Serif" font-size="36.00">+ RenderTemplate(name, data)</text>
<text text-anchor="start" x="598.38" y="-2705.45" font-family="Helvetica,sans-Serif" font-size="36.00">+ CommitToGitOps(ctx, client, config)</text>
</g>
<!-- ProvisionSession&#45;&gt;Orchestrator -->
<g id="edge11" class="edge">
<title>ProvisionSession&#45;&gt;Orchestrator</title>
<path fill="none" stroke="black" stroke-width="2.5" d="M660.62,-3523.31C660.62,-3523.31 660.62,-3214.22 660.62,-3214.22"/>
<polygon fill="black" stroke="black" stroke-width="2.5" points="664.13,-3214.22 660.63,-3204.22 657.13,-3214.22 664.13,-3214.22"/>
<text text-anchor="middle" x="690.5" y="-3295.65" font-family="Helvetica,sans-Serif" font-size="20.00">contient</text>
</g>
<!-- Executor -->
<g id="node9" class="node">
<title>Executor</title>
<polygon fill="#c8e6c9" stroke="none" points="300,-2327.15 300,-2427.15 990,-2427.15 990,-2327.15 300,-2327.15"/>
<polygon fill="none" stroke="black" points="300,-2327.15 300,-2427.15 990,-2427.15 990,-2327.15 300,-2327.15"/>
<text text-anchor="start" x="546" y="-2375.15" font-family="Helvetica,sans-Serif" font-weight="bold" font-size="40.00">Executor</text>
<text text-anchor="start" x="448.88" y="-2344.65" font-family="Helvetica,sans-Serif" font-size="30.00">pkg/terraform/executor.go</text>
<polygon fill="none" stroke="black" points="300,-2126.15 300,-2327.15 990,-2327.15 990,-2126.15 300,-2126.15"/>
<text text-anchor="start" x="315" y="-2277.95" font-family="Helvetica,sans-Serif" font-size="36.00">encapsule: hashicorp/terraform&#45;exec</text>
<text text-anchor="start" x="315" y="-2235.2" font-family="Helvetica,sans-Serif" font-size="36.00">──────────────────</text>
<text text-anchor="start" x="315" y="-2192.45" font-family="Helvetica,sans-Serif" font-size="36.00">+ Init(), Plan(), Apply()</text>
<text text-anchor="start" x="315" y="-2149.7" font-family="Helvetica,sans-Serif" font-size="36.00">+ Destroy(), Output()</text>
</g>
<!-- Orchestrator&#45;&gt;Executor -->
<g id="edge4" class="edge">
<title>Orchestrator&#45;&gt;Executor</title>
<path fill="none" stroke="black" stroke-width="2.5" d="M786.69,-2678.34C786.69,-2678.34 786.69,-2444.53 786.69,-2444.53"/>
<polygon fill="black" stroke="black" stroke-width="2.5" points="790.19,-2444.53 786.69,-2434.53 783.19,-2444.53 790.19,-2444.53"/>
<text text-anchor="middle" x="840.75" y="-2568.9" font-family="Helvetica,sans-Serif" font-size="20.00">délègue</text>
</g>
<!-- Templates -->
<g id="node10" class="node">
<title>Templates</title>
<polygon fill="#dcedc8" stroke="none" points="1150.12,-2369.9 1150.12,-2469.9 1633.88,-2469.9 1633.88,-2369.9 1150.12,-2369.9"/>
<polygon fill="none" stroke="black" points="1150.12,-2369.9 1150.12,-2469.9 1633.88,-2469.9 1633.88,-2369.9 1150.12,-2369.9"/>
<text text-anchor="start" x="1178.62" y="-2417.9" font-family="Helvetica,sans-Serif" font-weight="bold" font-size="40.00">Gabarits Terraform</text>
<text text-anchor="start" x="1234.12" y="-2387.4" font-family="Helvetica,sans-Serif" font-size="30.00">terraform&#45;templates/</text>
<polygon fill="none" stroke="black" points="1150.12,-2083.4 1150.12,-2369.9 1633.88,-2369.9 1633.88,-2083.4 1150.12,-2083.4"/>
<text text-anchor="start" x="1165.12" y="-2320.7" font-family="Helvetica,sans-Serif" font-size="36.00">gcp/infrastructure.tf.tmpl</text>
<text text-anchor="start" x="1165.12" y="-2277.95" font-family="Helvetica,sans-Serif" font-size="36.00">gcp/node.tf.tmpl</text>
<text text-anchor="start" x="1165.12" y="-2235.2" font-family="Helvetica,sans-Serif" font-size="36.00">gcp/modules/node/*.tmpl</text>
<text text-anchor="start" x="1165.12" y="-2192.45" font-family="Helvetica,sans-Serif" font-size="36.00">──────────────────</text>
<text text-anchor="start" x="1165.12" y="-2149.7" font-family="Helvetica,sans-Serif" font-size="36.00">aws/*.tf.tmpl (futur)</text>
<text text-anchor="start" x="1165.12" y="-2106.95" font-family="Helvetica,sans-Serif" font-size="36.00">azure/*.tf.tmpl (futur)</text>
</g>
<!-- Orchestrator&#45;&gt;Templates -->
<g id="edge5" class="edge">
<title>Orchestrator&#45;&gt;Templates</title>
<path fill="none" stroke="black" stroke-width="2.5" d="M1220.38,-2678.34C1220.38,-2678.34 1220.38,-2487.62 1220.38,-2487.62"/>
<polygon fill="black" stroke="black" stroke-width="2.5" points="1223.88,-2487.62 1220.38,-2477.62 1216.88,-2487.62 1223.88,-2487.62"/>
<text text-anchor="middle" x="1182.5" y="-2568.9" font-family="Helvetica,sans-Serif" font-size="20.00">rend</text>
</g>
<!-- InfrastructureService&#45;&gt;Provider -->
<g id="edge13" class="edge">
<title>InfrastructureService&#45;&gt;Provider</title>
<path fill="none" stroke="black" stroke-width="2.5" stroke-dasharray="5,2" d="M1466.19,-3511.84C1466.19,-3298.43 1466.19,-2939 1466.19,-2939 1466.19,-2939 2366.32,-2939 2366.32,-2939"/>
<polygon fill="black" stroke="black" stroke-width="2.5" points="2366.32,-2942.5 2376.32,-2939 2366.32,-2935.5 2366.32,-2942.5"/>
<text text-anchor="middle" x="1451" y="-3295.65" font-family="Helvetica,sans-Serif" font-size="20.00">obtient config de</text>
</g>
<!-- InfrastructureService&#45;&gt;Orchestrator -->
<g id="edge12" class="edge">
<title>InfrastructureService&#45;&gt;Orchestrator</title>
<path fill="none" stroke="black" stroke-width="2.5" d="M1097.44,-3511.9C1097.44,-3511.9 1097.44,-3214.25 1097.44,-3214.25"/>
<polygon fill="black" stroke="black" stroke-width="2.5" points="1100.94,-3214.25 1097.44,-3204.25 1093.94,-3214.25 1100.94,-3214.25"/>
<text text-anchor="middle" x="1095.25" y="-3295.65" font-family="Helvetica,sans-Serif" font-size="20.00">utilise</text>
</g>
<!-- step1 -->
<g id="node12" class="node">
<title>step1</title>
<path fill="#e8f5e9" stroke="black" stroke-width="2" d="M4969.35,-4510.6C4969.35,-4510.6 4426.65,-4510.6 4426.65,-4510.6 4420.65,-4510.6 4414.65,-4504.6 4414.65,-4498.6 4414.65,-4498.6 4414.65,-4359.7 4414.65,-4359.7 4414.65,-4353.7 4420.65,-4347.7 4426.65,-4347.7 4426.65,-4347.7 4969.35,-4347.7 4969.35,-4347.7 4975.35,-4347.7 4981.35,-4353.7 4981.35,-4359.7 4981.35,-4359.7 4981.35,-4498.6 4981.35,-4498.6 4981.35,-4504.6 4975.35,-4510.6 4969.35,-4510.6"/>
<text text-anchor="middle" x="4698" y="-4437" font-family="Helvetica,sans-Serif" font-size="32.00">1. Requête HTTP</text>
<text text-anchor="middle" x="4698" y="-4398.75" font-family="Helvetica,sans-Serif" font-size="32.00">(POST /gcp/nodes/provision)</text>
</g>
<!-- step2 -->
<g id="node13" class="node">
<title>step2</title>
<path fill="#e8f5e9" stroke="black" stroke-width="2" d="M4919.85,-3747.48C4919.85,-3747.48 4476.15,-3747.48 4476.15,-3747.48 4470.15,-3747.48 4464.15,-3741.48 4464.15,-3735.48 4464.15,-3735.48 4464.15,-3596.58 4464.15,-3596.58 4464.15,-3590.58 4470.15,-3584.58 4476.15,-3584.58 4476.15,-3584.58 4919.85,-3584.58 4919.85,-3584.58 4925.85,-3584.58 4931.85,-3590.58 4931.85,-3596.58 4931.85,-3596.58 4931.85,-3735.48 4931.85,-3735.48 4931.85,-3741.48 4925.85,-3747.48 4919.85,-3747.48"/>
<text text-anchor="middle" x="4698" y="-3673.88" font-family="Helvetica,sans-Serif" font-size="32.00">2. Obtenir Config GCP</text>
<text text-anchor="middle" x="4698" y="-3635.63" font-family="Helvetica,sans-Serif" font-size="32.00">via GCPService</text>
</g>
<!-- step1&#45;&gt;step2 -->
<g id="edge14" class="edge">
<title>step1&#45;&gt;step2</title>
<path fill="none" stroke="black" stroke-width="2.5" d="M4698,-4346.76C4698,-4346.76 4698,-3762.15 4698,-3762.15"/>
<polygon fill="black" stroke="black" stroke-width="2.5" points="4701.5,-3762.15 4698,-3752.15 4694.5,-3762.15 4701.5,-3762.15"/>
</g>
<!-- step2&#45;&gt;GCPService -->
<g id="edge23" class="edge">
<title>step2&#45;&gt;GCPService</title>
<path fill="none" stroke="black" stroke-width="2.5" stroke-dasharray="1,5" d="M4463.32,-3666C4463.32,-3666 3942.38,-3666 3942.38,-3666"/>
<polygon fill="black" stroke="black" stroke-width="2.5" points="3942.38,-3662.5 3932.38,-3666 3942.38,-3669.5 3942.38,-3662.5"/>
</g>
<!-- step3 -->
<g id="node14" class="node">
<title>step3</title>
<path fill="#e8f5e9" stroke="black" stroke-width="2" d="M4893.98,-3020.73C4893.98,-3020.73 4502.02,-3020.73 4502.02,-3020.73 4496.02,-3020.73 4490.02,-3014.73 4490.02,-3008.73 4490.02,-3008.73 4490.02,-2869.83 4490.02,-2869.83 4490.02,-2863.83 4496.02,-2857.83 4502.02,-2857.83 4502.02,-2857.83 4893.98,-2857.83 4893.98,-2857.83 4899.98,-2857.83 4905.98,-2863.83 4905.98,-2869.83 4905.98,-2869.83 4905.98,-3008.73 4905.98,-3008.73 4905.98,-3014.73 4899.98,-3020.73 4893.98,-3020.73"/>
<text text-anchor="middle" x="4698" y="-2947.13" font-family="Helvetica,sans-Serif" font-size="32.00">3. Générer Configs</text>
<text text-anchor="middle" x="4698" y="-2908.88" font-family="Helvetica,sans-Serif" font-size="32.00">Machine Talos</text>
</g>
<!-- step2&#45;&gt;step3 -->
<g id="edge15" class="edge">
<title>step2&#45;&gt;step3</title>
<path fill="none" stroke="black" stroke-width="2.5" d="M4698,-3583.72C4698,-3583.72 4698,-3035.46 4698,-3035.46"/>
<polygon fill="black" stroke="black" stroke-width="2.5" points="4701.5,-3035.46 4698,-3025.46 4694.5,-3035.46 4701.5,-3035.46"/>
</g>
<!-- step4 -->
<g id="node15" class="node">
<title>step4</title>
<path fill="#e8f5e9" stroke="black" stroke-width="2" d="M4910.85,-2358.1C4910.85,-2358.1 4485.15,-2358.1 4485.15,-2358.1 4479.15,-2358.1 4473.15,-2352.1 4473.15,-2346.1 4473.15,-2346.1 4473.15,-2207.2 4473.15,-2207.2 4473.15,-2201.2 4479.15,-2195.2 4485.15,-2195.2 4485.15,-2195.2 4910.85,-2195.2 4910.85,-2195.2 4916.85,-2195.2 4922.85,-2201.2 4922.85,-2207.2 4922.85,-2207.2 4922.85,-2346.1 4922.85,-2346.1 4922.85,-2352.1 4916.85,-2358.1 4910.85,-2358.1"/>
<text text-anchor="middle" x="4698" y="-2284.5" font-family="Helvetica,sans-Serif" font-size="32.00">4. Téléverser Configs</text>
<text text-anchor="middle" x="4698" y="-2246.25" font-family="Helvetica,sans-Serif" font-size="32.00">vers Bucket GCS</text>
</g>
<!-- step3&#45;&gt;step4 -->
<g id="edge16" class="edge">
<title>step3&#45;&gt;step4</title>
<path fill="none" stroke="black" stroke-width="2.5" d="M4698,-2857.03C4698,-2857.03 4698,-2372.85 4698,-2372.85"/>
<polygon fill="black" stroke="black" stroke-width="2.5" points="4701.5,-2372.85 4698,-2362.85 4694.5,-2372.85 4701.5,-2372.85"/>
</g>
<!-- step5 -->
<g id="node16" class="node">
<title>step5</title>
<path fill="#e8f5e9" stroke="black" stroke-width="2" d="M4909.35,-1898.4C4909.35,-1898.4 4486.65,-1898.4 4486.65,-1898.4 4480.65,-1898.4 4474.65,-1892.4 4474.65,-1886.4 4474.65,-1886.4 4474.65,-1747.5 4474.65,-1747.5 4474.65,-1741.5 4480.65,-1735.5 4486.65,-1735.5 4486.65,-1735.5 4909.35,-1735.5 4909.35,-1735.5 4915.35,-1735.5 4921.35,-1741.5 4921.35,-1747.5 4921.35,-1747.5 4921.35,-1886.4 4921.35,-1886.4 4921.35,-1892.4 4915.35,-1898.4 4909.35,-1898.4"/>
<text text-anchor="middle" x="4698" y="-1824.8" font-family="Helvetica,sans-Serif" font-size="32.00">5. Rendre Terraform</text>
<text text-anchor="middle" x="4698" y="-1786.55" font-family="Helvetica,sans-Serif" font-size="32.00">à partir des Gabarits</text>
</g>
<!-- step4&#45;&gt;step5 -->
<g id="edge17" class="edge">
<title>step4&#45;&gt;step5</title>
<path fill="none" stroke="black" stroke-width="2.5" d="M4698,-2194.46C4698,-2194.46 4698,-1912.98 4698,-1912.98"/>
<polygon fill="black" stroke="black" stroke-width="2.5" points="4701.5,-1912.98 4698,-1902.98 4694.5,-1912.98 4701.5,-1912.98"/>
</g>
<!-- step5&#45;&gt;Orchestrator -->
<g id="edge24" class="edge">
<title>step5&#45;&gt;Orchestrator</title>
<path fill="none" stroke="black" stroke-width="2.5" stroke-dasharray="1,5" d="M4473.92,-1817C3686.56,-1817 1094.08,-1817 1094.08,-1817 1094.08,-1817 1094.08,-2664.14 1094.08,-2664.14"/>
<polygon fill="black" stroke="black" stroke-width="2.5" points="1090.58,-2664.14 1094.08,-2674.14 1097.58,-2664.14 1090.58,-2664.14"/>
</g>
<!-- step6 -->
<g id="node17" class="node">
<title>step6</title>
<path fill="#e8f5e9" stroke="black" stroke-width="2" d="M4886.85,-1554.5C4886.85,-1554.5 4509.15,-1554.5 4509.15,-1554.5 4503.15,-1554.5 4497.15,-1548.5 4497.15,-1542.5 4497.15,-1542.5 4497.15,-1403.6 4497.15,-1403.6 4497.15,-1397.6 4503.15,-1391.6 4509.15,-1391.6 4509.15,-1391.6 4886.85,-1391.6 4886.85,-1391.6 4892.85,-1391.6 4898.85,-1397.6 4898.85,-1403.6 4898.85,-1403.6 4898.85,-1542.5 4898.85,-1542.5 4898.85,-1548.5 4892.85,-1554.5 4886.85,-1554.5"/>
<text text-anchor="middle" x="4698" y="-1480.9" font-family="Helvetica,sans-Serif" font-size="32.00">6. Terraform Plan</text>
<text text-anchor="middle" x="4698" y="-1442.65" font-family="Helvetica,sans-Serif" font-size="32.00">(via Orchestrator)</text>
</g>
<!-- step5&#45;&gt;step6 -->
<g id="edge18" class="edge">
<title>step5&#45;&gt;step6</title>
<path fill="none" stroke="black" stroke-width="2.5" d="M4698,-1734.58C4698,-1734.58 4698,-1569.13 4698,-1569.13"/>
<polygon fill="black" stroke="black" stroke-width="2.5" points="4701.5,-1569.13 4698,-1559.13 4694.5,-1569.13 4701.5,-1569.13"/>
</g>
<!-- step6&#45;&gt;Orchestrator -->
<g id="edge25" class="edge">
<title>step6&#45;&gt;Orchestrator</title>
<path fill="none" stroke="black" stroke-width="2.5" stroke-dasharray="1,5" d="M4496.45,-1473C3730.86,-1473 1046.04,-1473 1046.04,-1473 1046.04,-1473 1046.04,-2664.2 1046.04,-2664.2"/>
<polygon fill="black" stroke="black" stroke-width="2.5" points="1042.54,-2664.2 1046.04,-2674.2 1049.54,-2664.2 1042.54,-2664.2"/>
</g>
<!-- step7 -->
<g id="node18" class="node">
<title>step7</title>
<path fill="#e8f5e9" stroke="black" stroke-width="2" d="M4905.98,-1210.6C4905.98,-1210.6 4490.02,-1210.6 4490.02,-1210.6 4484.02,-1210.6 4478.02,-1204.6 4478.02,-1198.6 4478.02,-1198.6 4478.02,-1059.7 4478.02,-1059.7 4478.02,-1053.7 4484.02,-1047.7 4490.02,-1047.7 4490.02,-1047.7 4905.98,-1047.7 4905.98,-1047.7 4911.98,-1047.7 4917.98,-1053.7 4917.98,-1059.7 4917.98,-1059.7 4917.98,-1198.6 4917.98,-1198.6 4917.98,-1204.6 4911.98,-1210.6 4905.98,-1210.6"/>
<text text-anchor="middle" x="4698" y="-1137" font-family="Helvetica,sans-Serif" font-size="32.00">7. WebSocket:</text>
<text text-anchor="middle" x="4698" y="-1098.75" font-family="Helvetica,sans-Serif" font-size="32.00">Attente Approbation</text>
</g>
<!-- step6&#45;&gt;step7 -->
<g id="edge19" class="edge">
<title>step6&#45;&gt;step7</title>
<path fill="none" stroke="black" stroke-width="2.5" d="M4698,-1390.68C4698,-1390.68 4698,-1225.23 4698,-1225.23"/>
<polygon fill="black" stroke="black" stroke-width="2.5" points="4701.5,-1225.23 4698,-1215.23 4694.5,-1225.23 4701.5,-1225.23"/>
</g>
<!-- step8 -->
<g id="node19" class="node">
<title>step8</title>
<path fill="#e8f5e9" stroke="black" stroke-width="2" d="M4926.6,-866.7C4926.6,-866.7 4469.4,-866.7 4469.4,-866.7 4463.4,-866.7 4457.4,-860.7 4457.4,-854.7 4457.4,-854.7 4457.4,-715.8 4457.4,-715.8 4457.4,-709.8 4463.4,-703.8 4469.4,-703.8 4469.4,-703.8 4926.6,-703.8 4926.6,-703.8 4932.6,-703.8 4938.6,-709.8 4938.6,-715.8 4938.6,-715.8 4938.6,-854.7 4938.6,-854.7 4938.6,-860.7 4932.6,-866.7 4926.6,-866.7"/>
<text text-anchor="middle" x="4698" y="-793.1" font-family="Helvetica,sans-Serif" font-size="32.00">8. Commit vers GitOps</text>
<text text-anchor="middle" x="4698" y="-754.85" font-family="Helvetica,sans-Serif" font-size="32.00">(API GitHub)</text>
</g>
<!-- step7&#45;&gt;step8 -->
<g id="edge20" class="edge">
<title>step7&#45;&gt;step8</title>
<path fill="none" stroke="black" stroke-width="2.5" d="M4698,-1046.78C4698,-1046.78 4698,-881.33 4698,-881.33"/>
<polygon fill="black" stroke="black" stroke-width="2.5" points="4701.5,-881.33 4698,-871.33 4694.5,-881.33 4701.5,-881.33"/>
</g>
<!-- step9 -->
<g id="node20" class="node">
<title>step9</title>
<path fill="#e8f5e9" stroke="black" stroke-width="2" d="M4891.73,-522.8C4891.73,-522.8 4504.27,-522.8 4504.27,-522.8 4498.27,-522.8 4492.27,-516.8 4492.27,-510.8 4492.27,-510.8 4492.27,-371.9 4492.27,-371.9 4492.27,-365.9 4498.27,-359.9 4504.27,-359.9 4504.27,-359.9 4891.73,-359.9 4891.73,-359.9 4897.73,-359.9 4903.73,-365.9 4903.73,-371.9 4903.73,-371.9 4903.73,-510.8 4903.73,-510.8 4903.73,-516.8 4897.73,-522.8 4891.73,-522.8"/>
<text text-anchor="middle" x="4698" y="-449.2" font-family="Helvetica,sans-Serif" font-size="32.00">9. Terraform Apply</text>
<text text-anchor="middle" x="4698" y="-410.95" font-family="Helvetica,sans-Serif" font-size="32.00">(streaming JSON)</text>
</g>
<!-- step8&#45;&gt;step9 -->
<g id="edge21" class="edge">
<title>step8&#45;&gt;step9</title>
<path fill="none" stroke="black" stroke-width="2.5" d="M4698,-702.88C4698,-702.88 4698,-537.43 4698,-537.43"/>
<polygon fill="black" stroke="black" stroke-width="2.5" points="4701.5,-537.43 4698,-527.43 4694.5,-537.43 4701.5,-537.43"/>
</g>
<!-- step10 -->
<g id="node21" class="node">
<title>step10</title>
<path fill="#e8f5e9" stroke="black" stroke-width="2" d="M4955.48,-178.9C4955.48,-178.9 4440.52,-178.9 4440.52,-178.9 4434.52,-178.9 4428.52,-172.9 4428.52,-166.9 4428.52,-166.9 4428.52,-28 4428.52,-28 4428.52,-22 4434.52,-16 4440.52,-16 4440.52,-16 4955.48,-16 4955.48,-16 4961.48,-16 4967.48,-22 4967.48,-28 4967.48,-28 4967.48,-166.9 4967.48,-166.9 4967.48,-172.9 4961.48,-178.9 4955.48,-178.9"/>
<text text-anchor="middle" x="4698" y="-105.3" font-family="Helvetica,sans-Serif" font-size="32.00">10. Créer Enregistrements</text>
<text text-anchor="middle" x="4698" y="-67.05" font-family="Helvetica,sans-Serif" font-size="32.00">Noeuds en BD</text>
</g>
<!-- step9&#45;&gt;step10 -->
<g id="edge22" class="edge">
<title>step9&#45;&gt;step10</title>
<path fill="none" stroke="black" stroke-width="2.5" d="M4698,-358.98C4698,-358.98 4698,-193.53 4698,-193.53"/>
<polygon fill="black" stroke="black" stroke-width="2.5" points="4701.5,-193.53 4698,-183.53 4694.5,-193.53 4701.5,-193.53"/>
</g>
<!-- legend -->
<g id="node22" class="node">
<title>legend</title>
<polygon fill="#e3f2fd" stroke="none" points="5144.88,-4560.28 5144.88,-4631.03 5841.12,-4631.03 5841.12,-4560.28 5144.88,-4560.28"/>
<text text-anchor="start" x="5158.88" y="-4582.83" font-family="Helvetica,sans-Serif" font-size="36.00">Interface Stratégie (Patron Stratégie)</text>
<polygon fill="#c8e6c9" stroke="none" points="5144.88,-4477.53 5144.88,-4548.28 5841.12,-4548.28 5841.12,-4477.53 5144.88,-4477.53"/>
<text text-anchor="start" x="5323.5" y="-4500.08" font-family="Helvetica,sans-Serif" font-size="36.00">Stratégie Concrète</text>
<polygon fill="#ffe0b2" stroke="none" points="5144.88,-4394.78 5144.88,-4465.53 5841.12,-4465.53 5841.12,-4394.78 5144.88,-4394.78"/>
<text text-anchor="start" x="5245.88" y="-4417.33" font-family="Helvetica,sans-Serif" font-size="36.00">Contexte (Patron Stratégie)</text>
<polygon fill="#e1bee7" stroke="none" points="5144.88,-4312.03 5144.88,-4382.78 5841.12,-4382.78 5841.12,-4312.03 5144.88,-4312.03"/>
<text text-anchor="start" x="5230.5" y="-4334.58" font-family="Helvetica,sans-Serif" font-size="36.00">Service d&#39;Approvisionnement</text>
<polygon fill="#eeeeee" stroke="none" points="5144.88,-4227.28 5144.88,-4300.03 5841.12,-4300.03 5841.12,-4227.28 5144.88,-4227.28"/>
<polygon fill="none" stroke="black" stroke-dasharray="5,2" points="5144.88,-4227.28 5144.88,-4300.03 5841.12,-4300.03 5841.12,-4227.28 5144.88,-4227.28"/>
<text text-anchor="start" x="5279.25" y="-4250.83" font-family="Helvetica,sans-Serif" font-size="36.00">Futur (non implémenté)</text>
</g>
</g>
</svg>
