<?xml version="1.0" encoding="UTF-8" standalone="no"?>
<!DOCTYPE svg PUBLIC "-//W3C//DTD SVG 1.1//EN"
 "http://www.w3.org/Graphics/SVG/1.1/DTD/svg11.dtd">
<!-- Generated by graphviz version 12.2.1 (20241206.2353)
 -->
<!-- Title: ProviderStrategyPattern Pages: 1 -->
<svg width="3938pt" height="3455pt"
 viewBox="0.00 0.00 3938.00 3455.00" xmlns="http://www.w3.org/2000/svg" xmlns:xlink="http://www.w3.org/1999/xlink">
<g id="graph0" class="graph" transform="scale(1 1) rotate(0) translate(4 3451)">
<title>ProviderStrategyPattern</title>
<g id="clust1" class="cluster">
<title>cluster_strategy</title>
<polygon fill="none" stroke="#2196f3" stroke-dasharray="5,2" points="1118,-1999 1118,-2855 2510,-2855 2510,-1999 1118,-1999"/>
<text text-anchor="middle" x="1814" y="-2824.4" font-family="Helvetica,sans-Serif" font-size="28.00" fill="#2196f3">Patron Stratégie &#45; Abstraction des Fournisseurs Cloud</text>
</g>
<g id="clust2" class="cluster">
<title>cluster_context</title>
<polygon fill="none" stroke="#ff9800" stroke-dasharray="5,2" points="2056,-3002 2056,-3439 2585,-3439 2585,-3002 2056,-3002"/>
<text text-anchor="middle" x="2320.5" y="-3408.4" font-family="Helvetica,sans-Serif" font-size="28.00" fill="#ff9800">Contexte &#45; Registre des Fournisseurs</text>
</g>
<g id="clust3" class="cluster">
<title>cluster_provisioning</title>
<polygon fill="none" stroke="#9c27b0" stroke-dasharray="5,2" points="8,-2538.75 8,-3439 524,-3439 524,-2538.75 8,-2538.75"/>
<text text-anchor="middle" x="266" y="-3408.4" font-family="Helvetica,sans-Serif" font-size="28.00" fill="#9c27b0">Flux d&#39;Approvisionnement</text>
</g>
<g id="clust4" class="cluster">
<title>cluster_terraform</title>
<polygon fill="none" stroke="#4caf50" stroke-dasharray="5,2" points="121,-1484 121,-2325 997,-2325 997,-1484 121,-1484"/>
<text text-anchor="middle" x="559" y="-2294.4" font-family="Helvetica,sans-Serif" font-size="28.00" fill="#4caf50">Couche d&#39;Orchestration Terraform</text>
</g>
<g id="clust5" class="cluster">
<title>cluster_workflow</title>
<polygon fill="#fafafa" stroke="#fafafa" points="2988,-8 2988,-3280 3482,-3280 3482,-8 2988,-8"/>
<text text-anchor="middle" x="3235" y="-3251.3" font-family="Helvetica,sans-Serif" font-size="26.00" fill="#616161">Étapes du Flux d&#39;Approvisionnement</text>
</g>
<g id="clust6" class="cluster">
<title>cluster_legend</title>
<polygon fill="#fafafa" stroke="#fafafa" points="3490,-3053 3490,-3383.5 3922,-3383.5 3922,-3053 3490,-3053"/>
<text text-anchor="middle" x="3706" y="-3356.7" font-family="Helvetica,sans-Serif" font-size="24.00">Légende</text>
</g>
<!-- Provider -->
<g id="node1" class="node">
<title>Provider</title>
<polygon fill="#e3f2fd" stroke="none" points="1551.12,-2137 1551.12,-2215 2076.88,-2215 2076.88,-2137 1551.12,-2137"/>
<polygon fill="none" stroke="black" points="1551.12,-2137 1551.12,-2215 2076.88,-2215 2076.88,-2137 1551.12,-2137"/>
<text text-anchor="start" x="1712" y="-2178.2" font-family="Helvetica,sans-Serif" font-weight="bold" font-size="24.00">&lt;&lt;interface&gt;&gt;</text>
<text text-anchor="start" x="1756.25" y="-2154.2" font-family="Helvetica,sans-Serif" font-weight="bold" font-size="24.00">Provider</text>
<polygon fill="none" stroke="black" points="1551.12,-2011 1551.12,-2137 2076.88,-2137 2076.88,-2011 1551.12,-2011"/>
<text text-anchor="start" x="1566.12" y="-2103" font-family="Helvetica,sans-Serif" font-size="20.00">+ GetTerraformBackendConfig() map[string]string</text>
<text text-anchor="start" x="1566.12" y="-2079" font-family="Helvetica,sans-Serif" font-size="20.00">+ GetProviderName() string</text>
<text text-anchor="start" x="1566.12" y="-2055" font-family="Helvetica,sans-Serif" font-size="20.00">+ GetRegion() string</text>
<text text-anchor="start" x="1566.12" y="-2031" font-family="Helvetica,sans-Serif" font-size="20.00">+ IsConfigured() bool</text>
</g>
<!-- GCPService -->
<g id="node2" class="node">
<title>GCPService</title>
<polygon fill="#c8e6c9" stroke="none" points="2147.75,-2730 2147.75,-2802 2494.25,-2802 2494.25,-2730 2147.75,-2730"/>
<polygon fill="none" stroke="black" points="2147.75,-2730 2147.75,-2802 2494.25,-2802 2494.25,-2730 2147.75,-2730"/>
<text text-anchor="start" x="2243.75" y="-2765.2" font-family="Helvetica,sans-Serif" font-weight="bold" font-size="24.00">GCPService</text>
<text text-anchor="start" x="2219.75" y="-2746.9" font-family="Helvetica,sans-Serif" font-size="18.00">services/gcp/config.go</text>
<polygon fill="none" stroke="black" points="2147.75,-2484 2147.75,-2730 2494.25,-2730 2494.25,-2484 2147.75,-2484"/>
<text text-anchor="start" x="2162.75" y="-2696" font-family="Helvetica,sans-Serif" font-size="20.00">+ GetTerraformBackendConfig()</text>
<text text-anchor="start" x="2162.75" y="-2672" font-family="Helvetica,sans-Serif" font-size="20.00">+ GetProviderName() → &quot;gcp&quot;</text>
<text text-anchor="start" x="2162.75" y="-2648" font-family="Helvetica,sans-Serif" font-size="20.00">+ GetRegion()</text>
<text text-anchor="start" x="2162.75" y="-2624" font-family="Helvetica,sans-Serif" font-size="20.00">+ IsConfigured()</text>
<text text-anchor="start" x="2162.75" y="-2600" font-family="Helvetica,sans-Serif" font-size="20.00">──────────────────</text>
<text text-anchor="start" x="2162.75" y="-2576" font-family="Helvetica,sans-Serif" font-size="20.00">+ InitializeGCP()</text>
<text text-anchor="start" x="2162.75" y="-2552" font-family="Helvetica,sans-Serif" font-size="20.00">+ ConfigureGCP()</text>
<text text-anchor="start" x="2162.75" y="-2528" font-family="Helvetica,sans-Serif" font-size="20.00">+ GetClient() *gcp.Client</text>
<text text-anchor="start" x="2162.75" y="-2504" font-family="Helvetica,sans-Serif" font-size="20.00">+ GetCurrentConfig()</text>
</g>
<!-- GCPService&#45;&gt;Provider -->
<g id="edge1" class="edge">
<title>GCPService&#45;&gt;Provider</title>
<path fill="none" stroke="black" stroke-width="2.5" stroke-dasharray="5,2" d="M2139.79,-2510C2105.59,-2510 2080.29,-2510 2080.29,-2510 2080.29,-2510 2080.29,-2232.65 2080.29,-2232.65"/>
<polygon fill="none" stroke="black" stroke-width="2.5" points="2083.79,-2232.65 2080.29,-2222.65 2076.79,-2232.65 2083.79,-2232.65"/>
<text text-anchor="middle" x="2261.25" y="-2371" font-family="Helvetica,sans-Serif" font-size="20.00">implémente</text>
</g>
<!-- AWSService -->
<g id="node3" class="node">
<title>AWSService</title>
<polygon fill="#eeeeee" stroke="none" points="1133.75,-2670 1133.75,-2742 1480.25,-2742 1480.25,-2670 1133.75,-2670"/>
<polygon fill="none" stroke="black" points="1133.75,-2670 1133.75,-2742 1480.25,-2742 1480.25,-2670 1133.75,-2670"/>
<text text-anchor="start" x="1226.75" y="-2705.2" font-family="Helvetica,sans-Serif" font-weight="bold" font-size="24.00">AWSService</text>
<text text-anchor="start" x="1199.38" y="-2686.9" font-family="Helvetica,sans-Serif" font-size="18.00">(implémentation future)</text>
<polygon fill="none" stroke="black" points="1133.75,-2544 1133.75,-2670 1480.25,-2670 1480.25,-2544 1133.75,-2544"/>
<text text-anchor="start" x="1148.75" y="-2636" font-family="Helvetica,sans-Serif" font-size="20.00">+ GetTerraformBackendConfig()</text>
<text text-anchor="start" x="1148.75" y="-2612" font-family="Helvetica,sans-Serif" font-size="20.00">+ GetProviderName() → &quot;aws&quot;</text>
<text text-anchor="start" x="1148.75" y="-2588" font-family="Helvetica,sans-Serif" font-size="20.00">+ GetRegion()</text>
<text text-anchor="start" x="1148.75" y="-2564" font-family="Helvetica,sans-Serif" font-size="20.00">+ IsConfigured()</text>
</g>
<!-- AWSService&#45;&gt;Provider -->
<g id="edge2" class="edge">
<title>AWSService&#45;&gt;Provider</title>
<path fill="none" stroke="black" stroke-width="2.5" stroke-dasharray="5,2" d="M1488.1,-2546C1542.46,-2546 1587.94,-2546 1587.94,-2546 1587.94,-2546 1587.94,-2232.71 1587.94,-2232.71"/>
<polygon fill="none" stroke="black" stroke-width="2.5" points="1591.44,-2232.71 1587.94,-2222.71 1584.44,-2232.71 1591.44,-2232.71"/>
<text text-anchor="middle" x="1485.25" y="-2371" font-family="Helvetica,sans-Serif" font-size="20.00">implémente</text>
</g>
<!-- AzureService -->
<g id="node4" class="node">
<title>AzureService</title>
<polygon fill="#eeeeee" stroke="none" points="1640.75,-2658 1640.75,-2730 1987.25,-2730 1987.25,-2658 1640.75,-2658"/>
<polygon fill="none" stroke="black" points="1640.75,-2658 1640.75,-2730 1987.25,-2730 1987.25,-2658 1640.75,-2658"/>
<text text-anchor="start" x="1724.38" y="-2693.2" font-family="Helvetica,sans-Serif" font-weight="bold" font-size="24.00">AzureService</text>
<text text-anchor="start" x="1706.38" y="-2674.9" font-family="Helvetica,sans-Serif" font-size="18.00">(implémentation future)</text>
<polygon fill="none" stroke="black" points="1640.75,-2556 1640.75,-2658 1987.25,-2658 1987.25,-2556 1640.75,-2556"/>
<text text-anchor="start" x="1655.75" y="-2624" font-family="Helvetica,sans-Serif" font-size="20.00">+ GetTerraformBackendConfig()</text>
<text text-anchor="start" x="1655.75" y="-2600" font-family="Helvetica,sans-Serif" font-size="20.00">+ GetProviderName() → &quot;azure&quot;</text>
<text text-anchor="start" x="1655.75" y="-2576" font-family="Helvetica,sans-Serif" font-size="20.00">+ IsConfigured()</text>
</g>
<!-- AzureService&#45;&gt;Provider -->
<g id="edge3" class="edge">
<title>AzureService&#45;&gt;Provider</title>
<path fill="none" stroke="black" stroke-width="2.5" stroke-dasharray="5,2" d="M1814,-2552.19C1814,-2552.19 1814,-2232.76 1814,-2232.76"/>
<polygon fill="none" stroke="black" stroke-width="2.5" points="1817.5,-2232.76 1814,-2222.76 1810.5,-2232.76 1817.5,-2232.76"/>
<text text-anchor="middle" x="1873.25" y="-2371" font-family="Helvetica,sans-Serif" font-size="20.00">implémente</text>
</g>
<!-- ProviderManager -->
<g id="node5" class="node">
<title>ProviderManager</title>
<polygon fill="#ffe0b2" stroke="none" points="2079.12,-3314 2079.12,-3386 2562.88,-3386 2562.88,-3314 2079.12,-3314"/>
<polygon fill="none" stroke="black" points="2079.12,-3314 2079.12,-3386 2562.88,-3386 2562.88,-3314 2079.12,-3314"/>
<text text-anchor="start" x="2203.25" y="-3349.2" font-family="Helvetica,sans-Serif" font-weight="bold" font-size="24.00">ProviderManager</text>
<text text-anchor="start" x="2184.5" y="-3330.9" font-family="Helvetica,sans-Serif" font-size="18.00">services/provider_manager.go</text>
<polygon fill="none" stroke="black" points="2079.12,-3212 2079.12,-3314 2562.88,-3314 2562.88,-3212 2079.12,-3212"/>
<text text-anchor="start" x="2094.12" y="-3280" font-family="Helvetica,sans-Serif" font-size="20.00">&#45; providers: map[string]Provider</text>
<text text-anchor="start" x="2094.12" y="-3256" font-family="Helvetica,sans-Serif" font-size="20.00">&#45; gcpService: *GCPService</text>
<text text-anchor="start" x="2094.12" y="-3232" font-family="Helvetica,sans-Serif" font-size="20.00">&#45; infrastructureService: *InfrastructureService</text>
<polygon fill="none" stroke="black" points="2079.12,-3014 2079.12,-3212 2562.88,-3212 2562.88,-3014 2079.12,-3014"/>
<text text-anchor="start" x="2094.12" y="-3178" font-family="Helvetica,sans-Serif" font-size="20.00">+ InitializeProviders(ctx)</text>
<text text-anchor="start" x="2094.12" y="-3154" font-family="Helvetica,sans-Serif" font-size="20.00">+ GetProvider(name) Provider</text>
<text text-anchor="start" x="2094.12" y="-3130" font-family="Helvetica,sans-Serif" font-size="20.00">+ GetConfiguredProviders()</text>
<text text-anchor="start" x="2094.12" y="-3106" font-family="Helvetica,sans-Serif" font-size="20.00">+ HasConfiguredProviders()</text>
<text text-anchor="start" x="2094.12" y="-3082" font-family="Helvetica,sans-Serif" font-size="20.00">──────────────────</text>
<text text-anchor="start" x="2094.12" y="-3058" font-family="Helvetica,sans-Serif" font-size="20.00">&#45; initializeGCP(ctx)</text>
<text text-anchor="start" x="2094.12" y="-3034" font-family="Helvetica,sans-Serif" font-size="20.00">&#45; initializeGCPInfrastructure(ctx)</text>
</g>
<!-- ProviderManager&#45;&gt;Provider -->
<g id="edge6" class="edge">
<title>ProviderManager&#45;&gt;Provider</title>
<path fill="none" stroke="#ff9800" stroke-width="2.5" d="M2075.71,-3010.04C2075.71,-3010.04 2075.71,-2232.77 2075.71,-2232.77"/>
<polygon fill="#ff9800" stroke="#ff9800" stroke-width="2.5" points="2079.21,-2232.77 2075.71,-2222.77 2072.21,-2232.77 2079.21,-2232.77"/>
<text text-anchor="middle" x="2841.38" y="-2648" font-family="Helvetica,sans-Serif" font-size="20.00">utilise</text>
<text text-anchor="middle" x="2841.38" y="-2624" font-family="Helvetica,sans-Serif" font-size="20.00">(stratégie)</text>
</g>
<!-- ProviderManager&#45;&gt;GCPService -->
<g id="edge7" class="edge">
<title>ProviderManager&#45;&gt;GCPService</title>
<path fill="none" stroke="black" stroke-width="2.5" stroke-dasharray="5,2" d="M2321,-3010.26C2321,-3010.26 2321,-2819.36 2321,-2819.36"/>
<polygon fill="black" stroke="black" stroke-width="2.5" points="2324.5,-2819.36 2321,-2809.36 2317.5,-2819.36 2324.5,-2819.36"/>
<text text-anchor="middle" x="2370.88" y="-2901" font-family="Helvetica,sans-Serif" font-size="20.00">enregistre</text>
</g>
<!-- InfrastructureService -->
<g id="node11" class="node">
<title>InfrastructureService</title>
<polygon fill="#ffe0b2" stroke="none" points="563.88,-2670 563.88,-2742 974.12,-2742 974.12,-2670 563.88,-2670"/>
<polygon fill="none" stroke="black" points="563.88,-2670 563.88,-2742 974.12,-2742 974.12,-2670 563.88,-2670"/>
<text text-anchor="start" x="623.12" y="-2705.2" font-family="Helvetica,sans-Serif" font-weight="bold" font-size="24.00">InfrastructureService</text>
<text text-anchor="start" x="653.12" y="-2686.9" font-family="Helvetica,sans-Serif" font-size="18.00">services/infrastructure.go</text>
<polygon fill="none" stroke="black" points="563.88,-2544 563.88,-2670 974.12,-2670 974.12,-2544 563.88,-2544"/>
<text text-anchor="start" x="578.88" y="-2636" font-family="Helvetica,sans-Serif" font-size="20.00">+ InitializeInfrastructure(ctx, provider)</text>
<text text-anchor="start" x="578.88" y="-2612" font-family="Helvetica,sans-Serif" font-size="20.00">+ DestroyInfrastructure(ctx, provider)</text>
<text text-anchor="start" x="578.88" y="-2588" font-family="Helvetica,sans-Serif" font-size="20.00">+ GetInfrastructureStatus(provider)</text>
<text text-anchor="start" x="578.88" y="-2564" font-family="Helvetica,sans-Serif" font-size="20.00">+ PublishNodeModule(ctx, provider)</text>
</g>
<!-- ProviderManager&#45;&gt;InfrastructureService -->
<g id="edge8" class="edge">
<title>ProviderManager&#45;&gt;InfrastructureService</title>
<path fill="none" stroke="black" stroke-width="2.5" d="M2071.21,-3200C1632.36,-3200 769,-3200 769,-3200 769,-3200 769,-2759.6 769,-2759.6"/>
<polygon fill="black" stroke="black" stroke-width="2.5" points="772.5,-2759.6 769,-2749.6 765.5,-2759.6 772.5,-2759.6"/>
<text text-anchor="middle" x="1128.65" y="-3205" font-family="Helvetica,sans-Serif" font-size="20.00">initialise l&#39;infra</text>
</g>
<!-- ProvisioningService -->
<g id="node6" class="node">
<title>ProvisioningService</title>
<polygon fill="#e1bee7" stroke="none" points="24.12,-3314 24.12,-3386 507.88,-3386 507.88,-3314 24.12,-3314"/>
<polygon fill="none" stroke="black" points="24.12,-3314 24.12,-3386 507.88,-3386 507.88,-3314 24.12,-3314"/>
<text text-anchor="start" x="131.38" y="-3349.2" font-family="Helvetica,sans-Serif" font-weight="bold" font-size="24.00">ProvisioningService</text>
<text text-anchor="start" x="137" y="-3330.9" font-family="Helvetica,sans-Serif" font-size="18.00">services/gcp/provisioning.go</text>
<polygon fill="none" stroke="black" points="24.12,-3188 24.12,-3314 507.88,-3314 507.88,-3188 24.12,-3188"/>
<text text-anchor="start" x="39.12" y="-3280" font-family="Helvetica,sans-Serif" font-size="20.00">&#45; gcpService: *GCPService</text>
<text text-anchor="start" x="39.12" y="-3256" font-family="Helvetica,sans-Serif" font-size="20.00">&#45; talosService: *TalosService</text>
<text text-anchor="start" x="39.12" y="-3232" font-family="Helvetica,sans-Serif" font-size="20.00">&#45; gitopsService: *GitOpsService</text>
<text text-anchor="start" x="39.12" y="-3208" font-family="Helvetica,sans-Serif" font-size="20.00">&#45; activeProvisions: map[uuid]ProvisionSession</text>
<polygon fill="none" stroke="black" points="24.12,-3014 24.12,-3188 507.88,-3188 507.88,-3014 24.12,-3014"/>
<text text-anchor="start" x="39.12" y="-3154" font-family="Helvetica,sans-Serif" font-size="20.00">+ ProvisionNodes(ctx, req, session)</text>
<text text-anchor="start" x="39.12" y="-3130" font-family="Helvetica,sans-Serif" font-size="20.00">──────────────────</text>
<text text-anchor="start" x="39.12" y="-3106" font-family="Helvetica,sans-Serif" font-size="20.00">&#45; createTerraformFiles()</text>
<text text-anchor="start" x="39.12" y="-3082" font-family="Helvetica,sans-Serif" font-size="20.00">&#45; commitTerraformFiles()</text>
<text text-anchor="start" x="39.12" y="-3058" font-family="Helvetica,sans-Serif" font-size="20.00">&#45; uploadTalosConfigsToGCS()</text>
<text text-anchor="start" x="39.12" y="-3034" font-family="Helvetica,sans-Serif" font-size="20.00">&#45; getTerraformOutputs()</text>
</g>
<!-- ProvisioningService&#45;&gt;GCPService -->
<g id="edge9" class="edge">
<title>ProvisioningService&#45;&gt;GCPService</title>
<path fill="none" stroke="black" stroke-width="2.5" d="M463.62,-3010.01C463.62,-2897.21 463.62,-2776 463.62,-2776 463.62,-2776 2126.17,-2776 2126.17,-2776"/>
<polygon fill="black" stroke="black" stroke-width="2.5" points="2126.17,-2779.5 2136.17,-2776 2126.17,-2772.5 2126.17,-2779.5"/>
<text text-anchor="middle" x="574" y="-2901" font-family="Helvetica,sans-Serif" font-size="20.00">utilise config</text>
</g>
<!-- ProvisionSession -->
<g id="node7" class="node">
<title>ProvisionSession</title>
<polygon fill="#f3e5f5" stroke="none" points="78.62,-2676.75 78.62,-2735.25 403.38,-2735.25 403.38,-2676.75 78.62,-2676.75"/>
<polygon fill="none" stroke="black" points="78.62,-2676.75 78.62,-2735.25 403.38,-2735.25 403.38,-2676.75 78.62,-2676.75"/>
<text text-anchor="start" x="125.88" y="-2698.45" font-family="Helvetica,sans-Serif" font-weight="bold" font-size="24.00">ProvisionSession</text>
<polygon fill="none" stroke="black" points="78.62,-2550.75 78.62,-2676.75 403.38,-2676.75 403.38,-2550.75 78.62,-2550.75"/>
<text text-anchor="start" x="93.62" y="-2642.75" font-family="Helvetica,sans-Serif" font-size="20.00">+ WorkDir: string</text>
<text text-anchor="start" x="93.62" y="-2618.75" font-family="Helvetica,sans-Serif" font-size="20.00">+ Orchestrator: *Orchestrator</text>
<text text-anchor="start" x="93.62" y="-2594.75" font-family="Helvetica,sans-Serif" font-size="20.00">+ Nodes: []NodeConfig</text>
<text text-anchor="start" x="93.62" y="-2570.75" font-family="Helvetica,sans-Serif" font-size="20.00">+ GCPConfig: *GCPConfig</text>
</g>
<!-- ProvisioningService&#45;&gt;ProvisionSession -->
<g id="edge10" class="edge">
<title>ProvisioningService&#45;&gt;ProvisionSession</title>
<path fill="none" stroke="black" stroke-width="2.5" d="M241,-3010.26C241,-3010.26 241,-2752.87 241,-2752.87"/>
<polygon fill="black" stroke="black" stroke-width="2.5" points="244.5,-2752.87 241,-2742.87 237.5,-2752.87 244.5,-2752.87"/>
<text text-anchor="middle" x="275.12" y="-2901" font-family="Helvetica,sans-Serif" font-size="20.00">gère</text>
</g>
<!-- Orchestrator -->
<g id="node8" class="node">
<title>Orchestrator</title>
<polygon fill="#c8e6c9" stroke="none" points="325.88,-2200 325.88,-2272 730.12,-2272 730.12,-2200 325.88,-2200"/>
<polygon fill="none" stroke="black" points="325.88,-2200 325.88,-2272 730.12,-2272 730.12,-2200 325.88,-2200"/>
<text text-anchor="start" x="441" y="-2235.2" font-family="Helvetica,sans-Serif" font-weight="bold" font-size="24.00">Orchestrator</text>
<text text-anchor="start" x="394.12" y="-2216.9" font-family="Helvetica,sans-Serif" font-size="18.00">pkg/terraform/orchestrator.go</text>
<polygon fill="none" stroke="black" points="325.88,-1954 325.88,-2200 730.12,-2200 730.12,-1954 325.88,-1954"/>
<text text-anchor="start" x="340.88" y="-2166" font-family="Helvetica,sans-Serif" font-size="20.00">+ Init(ctx)</text>
<text text-anchor="start" x="340.88" y="-2142" font-family="Helvetica,sans-Serif" font-size="20.00">+ Plan(ctx) (bool, error)</text>
<text text-anchor="start" x="340.88" y="-2118" font-family="Helvetica,sans-Serif" font-size="20.00">+ PlanWithOutput(ctx)</text>
<text text-anchor="start" x="340.88" y="-2094" font-family="Helvetica,sans-Serif" font-size="20.00">+ Apply(ctx)</text>
<text text-anchor="start" x="340.88" y="-2070" font-family="Helvetica,sans-Serif" font-size="20.00">+ ApplyJSON(ctx, writer)</text>
<text text-anchor="start" x="340.88" y="-2046" font-family="Helvetica,sans-Serif" font-size="20.00">+ Destroy(ctx)</text>
<text text-anchor="start" x="340.88" y="-2022" font-family="Helvetica,sans-Serif" font-size="20.00">+ Output(ctx)</text>
<text text-anchor="start" x="340.88" y="-1998" font-family="Helvetica,sans-Serif" font-size="20.00">+ RenderTemplate(name, data)</text>
<text text-anchor="start" x="340.88" y="-1974" font-family="Helvetica,sans-Serif" font-size="20.00">+ CommitToGitOps(ctx, client, config)</text>
</g>
<!-- ProvisionSession&#45;&gt;Orchestrator -->
<g id="edge11" class="edge">
<title>ProvisionSession&#45;&gt;Orchestrator</title>
<path fill="none" stroke="black" stroke-width="2.5" d="M364.62,-2547.02C364.62,-2547.02 364.62,-2289.67 364.62,-2289.67"/>
<polygon fill="black" stroke="black" stroke-width="2.5" points="368.13,-2289.67 364.63,-2279.67 361.13,-2289.67 368.13,-2289.67"/>
<text text-anchor="middle" x="418.5" y="-2371" font-family="Helvetica,sans-Serif" font-size="20.00">contient</text>
</g>
<!-- Executor -->
<g id="node9" class="node">
<title>Executor</title>
<polygon fill="#c8e6c9" stroke="none" points="137.38,-1646 137.38,-1718 532.62,-1718 532.62,-1646 137.38,-1646"/>
<polygon fill="none" stroke="black" points="137.38,-1646 137.38,-1718 532.62,-1718 532.62,-1646 137.38,-1646"/>
<text text-anchor="start" x="275" y="-1681.2" font-family="Helvetica,sans-Serif" font-weight="bold" font-size="24.00">Executor</text>
<text text-anchor="start" x="217.62" y="-1662.9" font-family="Helvetica,sans-Serif" font-size="18.00">pkg/terraform/executor.go</text>
<polygon fill="none" stroke="black" points="137.38,-1520 137.38,-1646 532.62,-1646 532.62,-1520 137.38,-1520"/>
<text text-anchor="start" x="152.38" y="-1612" font-family="Helvetica,sans-Serif" font-size="20.00">encapsule: hashicorp/terraform&#45;exec</text>
<text text-anchor="start" x="152.38" y="-1588" font-family="Helvetica,sans-Serif" font-size="20.00">──────────────────</text>
<text text-anchor="start" x="152.38" y="-1564" font-family="Helvetica,sans-Serif" font-size="20.00">+ Init(), Plan(), Apply()</text>
<text text-anchor="start" x="152.38" y="-1540" font-family="Helvetica,sans-Serif" font-size="20.00">+ Destroy(), Output()</text>
</g>
<!-- Orchestrator&#45;&gt;Executor -->
<g id="edge4" class="edge">
<title>Orchestrator&#45;&gt;Executor</title>
<path fill="none" stroke="black" stroke-width="2.5" d="M429.25,-1950.22C429.25,-1950.22 429.25,-1735.42 429.25,-1735.42"/>
<polygon fill="black" stroke="black" stroke-width="2.5" points="432.75,-1735.42 429.25,-1725.42 425.75,-1735.42 432.75,-1735.42"/>
<text text-anchor="middle" x="442.75" y="-1841" font-family="Helvetica,sans-Serif" font-size="20.00">délègue</text>
</g>
<!-- Templates -->
<g id="node10" class="node">
<title>Templates</title>
<polygon fill="#dcedc8" stroke="none" points="693,-1670 693,-1742 981,-1742 981,-1670 693,-1670"/>
<polygon fill="none" stroke="black" points="693,-1670 693,-1742 981,-1742 981,-1670 693,-1670"/>
<text text-anchor="start" x="708" y="-1705.2" font-family="Helvetica,sans-Serif" font-weight="bold" font-size="24.00">Gabarits Terraform</text>
<text text-anchor="start" x="742.88" y="-1686.9" font-family="Helvetica,sans-Serif" font-size="18.00">terraform&#45;templates/</text>
<polygon fill="none" stroke="black" points="693,-1496 693,-1670 981,-1670 981,-1496 693,-1496"/>
<text text-anchor="start" x="708" y="-1636" font-family="Helvetica,sans-Serif" font-size="20.00">gcp/infrastructure.tf.tmpl</text>
<text text-anchor="start" x="708" y="-1612" font-family="Helvetica,sans-Serif" font-size="20.00">gcp/node.tf.tmpl</text>
<text text-anchor="start" x="708" y="-1588" font-family="Helvetica,sans-Serif" font-size="20.00">gcp/modules/node/*.tmpl</text>
<text text-anchor="start" x="708" y="-1564" font-family="Helvetica,sans-Serif" font-size="20.00">──────────────────</text>
<text text-anchor="start" x="708" y="-1540" font-family="Helvetica,sans-Serif" font-size="20.00">aws/*.tf.tmpl (futur)</text>
<text text-anchor="start" x="708" y="-1516" font-family="Helvetica,sans-Serif" font-size="20.00">azure/*.tf.tmpl (futur)</text>
</g>
<!-- Orchestrator&#45;&gt;Templates -->
<g id="edge5" class="edge">
<title>Orchestrator&#45;&gt;Templates</title>
<path fill="none" stroke="black" stroke-width="2.5" d="M711.56,-1950.22C711.56,-1950.22 711.56,-1759.53 711.56,-1759.53"/>
<polygon fill="black" stroke="black" stroke-width="2.5" points="715.06,-1759.53 711.56,-1749.53 708.06,-1759.53 715.06,-1759.53"/>
<text text-anchor="middle" x="790.5" y="-1841" font-family="Helvetica,sans-Serif" font-size="20.00">rend</text>
</g>
<!-- InfrastructureService&#45;&gt;Provider -->
<g id="edge13" class="edge">
<title>InfrastructureService&#45;&gt;Provider</title>
<path fill="none" stroke="black" stroke-width="2.5" stroke-dasharray="5,2" d="M860.12,-2540.18C860.12,-2386.06 860.12,-2113 860.12,-2113 860.12,-2113 1529.43,-2113 1529.43,-2113"/>
<polygon fill="black" stroke="black" stroke-width="2.5" points="1529.43,-2116.5 1539.43,-2113 1529.43,-2109.5 1529.43,-2116.5"/>
<text text-anchor="middle" x="967" y="-2371" font-family="Helvetica,sans-Serif" font-size="20.00">obtient config de</text>
</g>
<!-- InfrastructureService&#45;&gt;Orchestrator -->
<g id="edge12" class="edge">
<title>InfrastructureService&#45;&gt;Orchestrator</title>
<path fill="none" stroke="black" stroke-width="2.5" d="M647,-2540.18C647,-2540.18 647,-2289.54 647,-2289.54"/>
<polygon fill="black" stroke="black" stroke-width="2.5" points="650.5,-2289.54 647,-2279.54 643.5,-2289.54 650.5,-2289.54"/>
<text text-anchor="middle" x="682.25" y="-2371" font-family="Helvetica,sans-Serif" font-size="20.00">utilise</text>
</g>
<!-- step1 -->
<g id="node12" class="node">
<title>step1</title>
<path fill="#e8f5e9" stroke="black" d="M3340.5,-3232.5C3340.5,-3232.5 3009.5,-3232.5 3009.5,-3232.5 3003.5,-3232.5 2997.5,-3226.5 2997.5,-3220.5 2997.5,-3220.5 2997.5,-3179.5 2997.5,-3179.5 2997.5,-3173.5 3003.5,-3167.5 3009.5,-3167.5 3009.5,-3167.5 3340.5,-3167.5 3340.5,-3167.5 3346.5,-3167.5 3352.5,-3173.5 3352.5,-3179.5 3352.5,-3179.5 3352.5,-3220.5 3352.5,-3220.5 3352.5,-3226.5 3346.5,-3232.5 3340.5,-3232.5"/>
<text text-anchor="middle" x="3175" y="-3205.7" font-family="Helvetica,sans-Serif" font-size="24.00">1. Requête HTTP</text>
<text text-anchor="middle" x="3175" y="-3177.2" font-family="Helvetica,sans-Serif" font-size="24.00">(POST /gcp/nodes/provision)</text>
</g>
<!-- step2 -->
<g id="node13" class="node">
<title>step2</title>
<path fill="#e8f5e9" stroke="black" d="M3301.5,-2675.5C3301.5,-2675.5 3048.5,-2675.5 3048.5,-2675.5 3042.5,-2675.5 3036.5,-2669.5 3036.5,-2663.5 3036.5,-2663.5 3036.5,-2622.5 3036.5,-2622.5 3036.5,-2616.5 3042.5,-2610.5 3048.5,-2610.5 3048.5,-2610.5 3301.5,-2610.5 3301.5,-2610.5 3307.5,-2610.5 3313.5,-2616.5 3313.5,-2622.5 3313.5,-2622.5 3313.5,-2663.5 3313.5,-2663.5 3313.5,-2669.5 3307.5,-2675.5 3301.5,-2675.5"/>
<text text-anchor="middle" x="3175" y="-2648.7" font-family="Helvetica,sans-Serif" font-size="24.00">2. Obtenir Config GCP</text>
<text text-anchor="middle" x="3175" y="-2620.2" font-family="Helvetica,sans-Serif" font-size="24.00">via GCPService</text>
</g>
<!-- step1&#45;&gt;step2 -->
<g id="edge14" class="edge">
<title>step1&#45;&gt;step2</title>
<path fill="none" stroke="black" stroke-width="2.5" d="M3175,-3167.24C3175,-3167.24 3175,-2689.51 3175,-2689.51"/>
<polygon fill="black" stroke="black" stroke-width="2.5" points="3178.5,-2689.51 3175,-2679.51 3171.5,-2689.51 3178.5,-2689.51"/>
</g>
<!-- step2&#45;&gt;GCPService -->
<g id="edge23" class="edge">
<title>step2&#45;&gt;GCPService</title>
<path fill="none" stroke="black" stroke-width="2.5" stroke-dasharray="1,5" d="M3036.37,-2643C3036.37,-2643 2515.7,-2643 2515.7,-2643"/>
<polygon fill="black" stroke="black" stroke-width="2.5" points="2515.7,-2639.5 2505.7,-2643 2515.7,-2646.5 2515.7,-2639.5"/>
</g>
<!-- step3 -->
<g id="node14" class="node">
<title>step3</title>
<path fill="#e8f5e9" stroke="black" d="M3283.12,-2145.5C3283.12,-2145.5 3066.88,-2145.5 3066.88,-2145.5 3060.88,-2145.5 3054.88,-2139.5 3054.88,-2133.5 3054.88,-2133.5 3054.88,-2092.5 3054.88,-2092.5 3054.88,-2086.5 3060.88,-2080.5 3066.88,-2080.5 3066.88,-2080.5 3283.12,-2080.5 3283.12,-2080.5 3289.12,-2080.5 3295.12,-2086.5 3295.12,-2092.5 3295.12,-2092.5 3295.12,-2133.5 3295.12,-2133.5 3295.12,-2139.5 3289.12,-2145.5 3283.12,-2145.5"/>
<text text-anchor="middle" x="3175" y="-2118.7" font-family="Helvetica,sans-Serif" font-size="24.00">3. Générer Configs</text>
<text text-anchor="middle" x="3175" y="-2090.2" font-family="Helvetica,sans-Serif" font-size="24.00">Machine Talos</text>
</g>
<!-- step2&#45;&gt;step3 -->
<g id="edge15" class="edge">
<title>step2&#45;&gt;step3</title>
<path fill="none" stroke="black" stroke-width="2.5" d="M3175,-2610.25C3175,-2610.25 3175,-2159.66 3175,-2159.66"/>
<polygon fill="black" stroke="black" stroke-width="2.5" points="3178.5,-2159.66 3175,-2149.66 3171.5,-2159.66 3178.5,-2159.66"/>
</g>
<!-- step4 -->
<g id="node15" class="node">
<title>step4</title>
<path fill="#e8f5e9" stroke="black" d="M3296.25,-1651.5C3296.25,-1651.5 3053.75,-1651.5 3053.75,-1651.5 3047.75,-1651.5 3041.75,-1645.5 3041.75,-1639.5 3041.75,-1639.5 3041.75,-1598.5 3041.75,-1598.5 3041.75,-1592.5 3047.75,-1586.5 3053.75,-1586.5 3053.75,-1586.5 3296.25,-1586.5 3296.25,-1586.5 3302.25,-1586.5 3308.25,-1592.5 3308.25,-1598.5 3308.25,-1598.5 3308.25,-1639.5 3308.25,-1639.5 3308.25,-1645.5 3302.25,-1651.5 3296.25,-1651.5"/>
<text text-anchor="middle" x="3175" y="-1624.7" font-family="Helvetica,sans-Serif" font-size="24.00">4. Téléverser Configs</text>
<text text-anchor="middle" x="3175" y="-1596.2" font-family="Helvetica,sans-Serif" font-size="24.00">vers Bucket GCS</text>
</g>
<!-- step3&#45;&gt;step4 -->
<g id="edge16" class="edge">
<title>step3&#45;&gt;step4</title>
<path fill="none" stroke="black" stroke-width="2.5" d="M3175,-2080.2C3175,-2080.2 3175,-1665.57 3175,-1665.57"/>
<polygon fill="black" stroke="black" stroke-width="2.5" points="3178.5,-1665.57 3175,-1655.57 3171.5,-1665.57 3178.5,-1665.57"/>
</g>
<!-- step5 -->
<g id="node16" class="node">
<title>step5</title>
<path fill="#e8f5e9" stroke="black" d="M3295.5,-1311C3295.5,-1311 3054.5,-1311 3054.5,-1311 3048.5,-1311 3042.5,-1305 3042.5,-1299 3042.5,-1299 3042.5,-1258 3042.5,-1258 3042.5,-1252 3048.5,-1246 3054.5,-1246 3054.5,-1246 3295.5,-1246 3295.5,-1246 3301.5,-1246 3307.5,-1252 3307.5,-1258 3307.5,-1258 3307.5,-1299 3307.5,-1299 3307.5,-1305 3301.5,-1311 3295.5,-1311"/>
<text text-anchor="middle" x="3175" y="-1284.2" font-family="Helvetica,sans-Serif" font-size="24.00">5. Rendre Terraform</text>
<text text-anchor="middle" x="3175" y="-1255.7" font-family="Helvetica,sans-Serif" font-size="24.00">à partir des Gabarits</text>
</g>
<!-- step4&#45;&gt;step5 -->
<g id="edge17" class="edge">
<title>step4&#45;&gt;step5</title>
<path fill="none" stroke="black" stroke-width="2.5" d="M3175,-1586.04C3175,-1586.04 3175,-1325.26 3175,-1325.26"/>
<polygon fill="black" stroke="black" stroke-width="2.5" points="3178.5,-1325.26 3175,-1315.26 3171.5,-1325.26 3178.5,-1325.26"/>
</g>
<!-- step5&#45;&gt;Orchestrator -->
<g id="edge24" class="edge">
<title>step5&#45;&gt;Orchestrator</title>
<path fill="none" stroke="black" stroke-width="2.5" stroke-dasharray="1,5" d="M3042.11,-1279C2519.87,-1279 636.88,-1279 636.88,-1279 636.88,-1279 636.88,-1936.43 636.88,-1936.43"/>
<polygon fill="black" stroke="black" stroke-width="2.5" points="633.38,-1936.43 636.88,-1946.43 640.38,-1936.43 633.38,-1936.43"/>
</g>
<!-- step6 -->
<g id="node17" class="node">
<title>step6</title>
<path fill="#e8f5e9" stroke="black" d="M3278.25,-1065C3278.25,-1065 3071.75,-1065 3071.75,-1065 3065.75,-1065 3059.75,-1059 3059.75,-1053 3059.75,-1053 3059.75,-1012 3059.75,-1012 3059.75,-1006 3065.75,-1000 3071.75,-1000 3071.75,-1000 3278.25,-1000 3278.25,-1000 3284.25,-1000 3290.25,-1006 3290.25,-1012 3290.25,-1012 3290.25,-1053 3290.25,-1053 3290.25,-1059 3284.25,-1065 3278.25,-1065"/>
<text text-anchor="middle" x="3175" y="-1038.2" font-family="Helvetica,sans-Serif" font-size="24.00">6. Terraform Plan</text>
<text text-anchor="middle" x="3175" y="-1009.7" font-family="Helvetica,sans-Serif" font-size="24.00">(via Orchestrator)</text>
</g>
<!-- step5&#45;&gt;step6 -->
<g id="edge18" class="edge">
<title>step5&#45;&gt;step6</title>
<path fill="none" stroke="black" stroke-width="2.5" d="M3175,-1245.58C3175,-1245.58 3175,-1079.01 3175,-1079.01"/>
<polygon fill="black" stroke="black" stroke-width="2.5" points="3178.5,-1079.01 3175,-1069.01 3171.5,-1079.01 3178.5,-1079.01"/>
</g>
<!-- step6&#45;&gt;Orchestrator -->
<g id="edge25" class="edge">
<title>step6&#45;&gt;Orchestrator</title>
<path fill="none" stroke="black" stroke-width="2.5" stroke-dasharray="1,5" d="M3059.27,-1033C2556.71,-1033 588.75,-1033 588.75,-1033 588.75,-1033 588.75,-1936.36 588.75,-1936.36"/>
<polygon fill="black" stroke="black" stroke-width="2.5" points="585.25,-1936.36 588.75,-1946.36 592.25,-1936.36 585.25,-1936.36"/>
</g>
<!-- step7 -->
<g id="node18" class="node">
<title>step7</title>
<path fill="#e8f5e9" stroke="black" d="M3293.25,-819C3293.25,-819 3056.75,-819 3056.75,-819 3050.75,-819 3044.75,-813 3044.75,-807 3044.75,-807 3044.75,-766 3044.75,-766 3044.75,-760 3050.75,-754 3056.75,-754 3056.75,-754 3293.25,-754 3293.25,-754 3299.25,-754 3305.25,-760 3305.25,-766 3305.25,-766 3305.25,-807 3305.25,-807 3305.25,-813 3299.25,-819 3293.25,-819"/>
<text text-anchor="middle" x="3175" y="-792.2" font-family="Helvetica,sans-Serif" font-size="24.00">7. WebSocket:</text>
<text text-anchor="middle" x="3175" y="-763.7" font-family="Helvetica,sans-Serif" font-size="24.00">Attente Approbation</text>
</g>
<!-- step6&#45;&gt;step7 -->
<g id="edge19" class="edge">
<title>step6&#45;&gt;step7</title>
<path fill="none" stroke="black" stroke-width="2.5" d="M3175,-999.58C3175,-999.58 3175,-833.01 3175,-833.01"/>
<polygon fill="black" stroke="black" stroke-width="2.5" points="3178.5,-833.01 3175,-823.01 3171.5,-833.01 3178.5,-833.01"/>
</g>
<!-- step8 -->
<g id="node19" class="node">
<title>step8</title>
<path fill="#e8f5e9" stroke="black" d="M3307.5,-573C3307.5,-573 3042.5,-573 3042.5,-573 3036.5,-573 3030.5,-567 3030.5,-561 3030.5,-561 3030.5,-520 3030.5,-520 3030.5,-514 3036.5,-508 3042.5,-508 3042.5,-508 3307.5,-508 3307.5,-508 3313.5,-508 3319.5,-514 3319.5,-520 3319.5,-520 3319.5,-561 3319.5,-561 3319.5,-567 3313.5,-573 3307.5,-573"/>
<text text-anchor="middle" x="3175" y="-546.2" font-family="Helvetica,sans-Serif" font-size="24.00">8. Commit vers GitOps</text>
<text text-anchor="middle" x="3175" y="-517.7" font-family="Helvetica,sans-Serif" font-size="24.00">(API GitHub)</text>
</g>
<!-- step7&#45;&gt;step8 -->
<g id="edge20" class="edge">
<title>step7&#45;&gt;step8</title>
<path fill="none" stroke="black" stroke-width="2.5" d="M3175,-753.58C3175,-753.58 3175,-587.01 3175,-587.01"/>
<polygon fill="black" stroke="black" stroke-width="2.5" points="3178.5,-587.01 3175,-577.01 3171.5,-587.01 3178.5,-587.01"/>
</g>
<!-- step9 -->
<g id="node20" class="node">
<title>step9</title>
<path fill="#e8f5e9" stroke="black" d="M3281.62,-327C3281.62,-327 3068.38,-327 3068.38,-327 3062.38,-327 3056.38,-321 3056.38,-315 3056.38,-315 3056.38,-274 3056.38,-274 3056.38,-268 3062.38,-262 3068.38,-262 3068.38,-262 3281.62,-262 3281.62,-262 3287.62,-262 3293.62,-268 3293.62,-274 3293.62,-274 3293.62,-315 3293.62,-315 3293.62,-321 3287.62,-327 3281.62,-327"/>
<text text-anchor="middle" x="3175" y="-300.2" font-family="Helvetica,sans-Serif" font-size="24.00">9. Terraform Apply</text>
<text text-anchor="middle" x="3175" y="-271.7" font-family="Helvetica,sans-Serif" font-size="24.00">(streaming JSON)</text>
</g>
<!-- step8&#45;&gt;step9 -->
<g id="edge21" class="edge">
<title>step8&#45;&gt;step9</title>
<path fill="none" stroke="black" stroke-width="2.5" d="M3175,-507.58C3175,-507.58 3175,-341.01 3175,-341.01"/>
<polygon fill="black" stroke="black" stroke-width="2.5" points="3178.5,-341.01 3175,-331.01 3171.5,-341.01 3178.5,-341.01"/>
</g>
<!-- step10 -->
<g id="node21" class="node">
<title>step10</title>
<path fill="#e8f5e9" stroke="black" d="M3328.88,-81C3328.88,-81 3021.12,-81 3021.12,-81 3015.12,-81 3009.12,-75 3009.12,-69 3009.12,-69 3009.12,-28 3009.12,-28 3009.12,-22 3015.12,-16 3021.12,-16 3021.12,-16 3328.88,-16 3328.88,-16 3334.88,-16 3340.88,-22 3340.88,-28 3340.88,-28 3340.88,-69 3340.88,-69 3340.88,-75 3334.88,-81 3328.88,-81"/>
<text text-anchor="middle" x="3175" y="-54.2" font-family="Helvetica,sans-Serif" font-size="24.00">10. Créer Enregistrements</text>
<text text-anchor="middle" x="3175" y="-25.7" font-family="Helvetica,sans-Serif" font-size="24.00">Noeuds en BD</text>
</g>
<!-- step9&#45;&gt;step10 -->
<g id="edge22" class="edge">
<title>step9&#45;&gt;step10</title>
<path fill="none" stroke="black" stroke-width="2.5" d="M3175,-261.58C3175,-261.58 3175,-95.01 3175,-95.01"/>
<polygon fill="black" stroke="black" stroke-width="2.5" points="3178.5,-95.01 3175,-85.01 3171.5,-95.01 3178.5,-95.01"/>
</g>
<!-- legend -->
<g id="node22" class="node">
<title>legend</title>
<polygon fill="#e3f2fd" stroke="none" points="3513.75,-3283 3513.75,-3327 3898.25,-3327 3898.25,-3283 3513.75,-3283"/>
<text text-anchor="start" x="3523.75" y="-3298" font-family="Helvetica,sans-Serif" font-size="20.00">Interface Stratégie (Patron Stratégie)</text>
<polygon fill="#c8e6c9" stroke="none" points="3513.75,-3231 3513.75,-3275 3898.25,-3275 3898.25,-3231 3513.75,-3231"/>
<text text-anchor="start" x="3613.38" y="-3246" font-family="Helvetica,sans-Serif" font-size="20.00">Stratégie Concrète</text>
<polygon fill="#ffe0b2" stroke="none" points="3513.75,-3179 3513.75,-3223 3898.25,-3223 3898.25,-3179 3513.75,-3179"/>
<text text-anchor="start" x="3571" y="-3194" font-family="Helvetica,sans-Serif" font-size="20.00">Contexte (Patron Stratégie)</text>
<polygon fill="#e1bee7" stroke="none" points="3513.75,-3127 3513.75,-3171 3898.25,-3171 3898.25,-3127 3513.75,-3127"/>
<text text-anchor="start" x="3560.88" y="-3142" font-family="Helvetica,sans-Serif" font-size="20.00">Service d&#39;Approvisionnement</text>
<polygon fill="#eeeeee" stroke="none" points="3513.75,-3073 3513.75,-3119 3898.25,-3119 3898.25,-3073 3513.75,-3073"/>
<polygon fill="none" stroke="black" stroke-dasharray="5,2" points="3513.75,-3073 3513.75,-3119 3898.25,-3119 3898.25,-3073 3513.75,-3073"/>
<text text-anchor="start" x="3588.62" y="-3089" font-family="Helvetica,sans-Serif" font-size="20.00">Futur (non implémenté)</text>
</g>
</g>
</svg>
